<svg xmlns="http://www.w3.org/2000/svg" data-name="Capa 1" viewBox="0 0 130 37">
  <path fill="#fff" d="M115 0h-1Zm7 1h-1Zm-13 2Zm4 0Zm-5 0Zm-1 0v1h-1V3Zm4 1a1 1 0 0 0-1 1V4h1Zm2 0h-1 1Zm3 0v1-1Zm-7 0Zm-1 0v1h-1V4Zm4 0v1-1Zm9 1Zm-1 0Zm-4 0Zm2 0-1 1V5a3 3 0 0 0 1 0Zm-5 0v1-1Zm-1 0-1 1V5h1ZM36 5v1-1Zm79 1Zm-4 0h-1Zm-4 0v1h-1V6v1l1-1Zm7 0v1l-2 1V7a2 2 0 0 0 1 0h-1V6a3 3 0 0 0 1 0 2 2 0 0 0 1 0 2 2 0 0 1 1 0Zm-2 1-1 1-1-1v2-2l1-1 1 1Zm-10 0-1-1 1 1Zm7-1v1h-1V6Zm12 2-1-1h1Zm6 10h-1l-1 1v1l1 1h-2a1 1 0 0 1 0 1h1-1l-1 1h1l1 1h-2l1 1-2 1v1h1v-1h1l1-1a2 2 0 0 0 0 1h-1v1l1 1v-1l-1 1h-1l-1-1a6 6 0 0 1 0 2l-1 1v-1h-2l-1 1a2 2 0 0 0 2 1h-1v-1h2v1h-1l1 1a3 3 0 0 0-2 0h-1 1v-1h-1v-1l-1 1h1v2h-1v-2 1l-1 1v-1l-2 1h-1v1a5 5 0 0 1-2 0l-1-1v1l-1-1h-1l1 1h-1v-1l-1 1a3 3 0 0 0-1-1v1l-1-1 1 1v1a3 3 0 0 1 1-1 2 2 0 0 0 0 1h-1l-1-1v1l-1-2-1 1h-1v1h1l-1-1h-1l1-1h-1l-1-1a2 2 0 0 1-1 1h1l-1 1v-1h-1v1a2 2 0 0 0-1 0v-1a2 2 0 0 0 0-1h1l-1 1-2-1h-1l1 1v-1l1 1h-1a3 3 0 0 0-1 0l1 1a1 1 0 0 0-1 1 2 2 0 0 0-1-2 2 2 0 0 0 1-1 2 2 0 0 1-1 0l-1 1h1-1a1 1 0 0 0 0-1h-1v-1h-1v1h-1a2 2 0 0 1-1 0 3 3 0 0 1-1 0h-1v-1h1-3a3 3 0 0 1-1-1l1 2v1-1h-1a3 3 0 0 0-1-1h-1v1-2l-1 1v-1h-2v1a2 2 0 0 1 1 0h1-4l-1-1a2 2 0 0 0 0 1l-1-1h-1v-1a4 4 0 0 1-1 0v1h-5a2 2 0 0 1 0 1l1-1a2 2 0 0 0 0 1h-2l1-2v1-1a2 2 0 0 1-1 0v1h-1l-1-1v1h-2v1a3 3 0 0 0-1-1h-1 1a3 3 0 0 0-1 1v-2h-1v1h-1v-1l-2 1v-1l-2 1 1-1a4 4 0 0 1-2 0 2 2 0 0 0-1 0h1l-1 1v-1a29 29 0 0 0-4 1v-1h2-2l-1 1h-1l-1-1 1 1-2-1a4 4 0 0 1-2 1v-1h-1l-1 1a5 5 0 0 1-1-1l-1 1a2 2 0 0 1-1 0 2 2 0 0 0-1 0 3 3 0 0 1 1 1l-1-1a2 2 0 0 1 0 1v1-2l-1 1a1 1 0 0 0-1-1v1a2 2 0 0 1 1 1h-1l-1-1 1-1h-1a1 1 0 0 1-1 1 3 3 0 0 0 0 1l-1-1v1l-1-1h1v-1h-1l-1 2a2 2 0 0 1 0-1 2 2 0 0 1-1 0l1 1a8 8 0 0 0-2 0h-1 1a4 4 0 0 0-2 1v-1a5 5 0 0 1-2 1v-1l-1-1-1 2a5 5 0 0 0-2-1h-1 1-1l-1 2v-1h-1a1 1 0 0 0 1 1l-2-2v1h-2a1 1 0 0 1-1-1v1-1h-1v1l-1-1-2-1v1l-1-1h1-2l1 1a3 3 0 0 0-1 0v-1l-1-1H4v-1a2 2 0 0 0 0 1H3v-3H2l1-1H2v1H1v-1a2 2 0 0 1 0-1H0h2l-1-1v-1H0l1-1-1-2 1-1-1 1v-1l1-1h1a1 1 0 0 1-1 0l1-1h1v1a2 2 0 0 1 0-1l1-1H3l1-1 1 1a7 7 0 0 0-2-1v-1h1a7 7 0 0 1 2 0v-1a2 2 0 0 1-1 0 2 2 0 0 0 1 0v-1 1l1 1 1-1a7 7 0 0 0 2 1v-1H9v-1a2 2 0 0 0 1 1v-1 1l2-1h1a2 2 0 0 0 0 1h-1v1h1l2-1-2-1h2v1h-1l1 1a2 2 0 0 1 1 0v-1h1l-1-1 2 1a2 2 0 0 0 0-1v2h1a2 2 0 0 1 0-1l1 1 1-1h-1l1-1v1h1v-1a2 2 0 0 1 2 1l1 1v-1h-1v-1l2 1 1-1a2 2 0 0 1 0 1h1a2 2 0 0 0 1-1v2l2 2-1-1v-1h1v1a1 1 0 0 0 1-1v1h1v-1h-1l1-1h1v1l-1 1h1v-1l1 1v-1l1 1a5 5 0 0 1 2-1 1 1 0 0 1 0 1l1-1 1 1v1h1l-1-1h2v-1h1v1h1v-1l2 2 1-1h-1l2-1-1 1a2 2 0 0 1 1 0h1v-1h-1l2 1h1-1l1-1a2 2 0 0 1-2 0 2 2 0 0 0 0-1l1 1v-1l1 1 1-1a9 9 0 0 0 0 2 2 2 0 0 1 1 0h-1v-1h1l1-1v1a2 2 0 0 1-1 1v1l1-1h-1 2v-1l1 1h2v-1a2 2 0 0 0 1-1v1-1 1h2v1l1-1h-1v-1l1 1h2v-1l2 2 1-2v-1a6 6 0 0 1 2 2v-1h1a2 2 0 0 1 1 0l2 1h1-1l1-1h1-1v-1l-1 1v-1h3-1 1l-1 1h1v-1h1v1l1-1 1 1v-1l2 2a2 2 0 0 1 0-1h-1v-1h1v-1 1a2 2 0 0 1 1 1l1-1 1 1 1-1h2v-1l2 1h1l-1-1h1l1 1v1a6 6 0 0 0 1-2 6 6 0 0 1 2 1l1-1h-1a2 2 0 0 0 2-1 4 4 0 0 1 2 0 2 2 0 0 1 1 0v1l1-1V8h1v1h-1 2-2v1h2a2 2 0 0 1 1 0l-2-2a4 4 0 0 0 2-1v1h-1l1 1h1a2 2 0 0 1 0 1V9h1V8h-1 1l1-1v1l-1 1 2-1v1l2-1 1 1h1l1-1v1l1-1 1 1h4V8h-2l2-1 1 1 2 4v-1 1h1l-1 2a3 3 0 0 0 1 0l2-1-2 1 1 2a3 3 0 0 0-1-1v1h2a3 3 0 0 1 1 1l-1 1v-1l-1 1h1v1h-1 1a3 3 0 0 1 3-1ZM115 7v1h-1V7h1Zm-14 0v1h-1V7Zm13 1v1-2 1Zm-7-1-1 1 1-1Zm17 1h-1Zm-16 0v1l-1-1h1Zm8 0Zm6 3h-1v-1h-1v1-2h-1l1-1h1v1h-1Zm-18-2h-1l1-1Zm-6 0V8v1Zm28-1v1h-1V8Zm-3 1h-1V8a2 2 0 0 0 1 1ZM87 9Zm38 0h-1Zm-15 0h-1 1ZM98 9Zm-1 0ZM71 9v1-1Zm48 0h-1v1h1Zm-13 0h-1a2 2 0 0 1 0 1v1l1-1Zm-14 1-1 1V9a2 2 0 0 0 1 1ZM82 9v1h-1V9ZM17 9v1-1Zm105 1Zm-6 0Zm-4 0a3 3 0 0 1 1 1l-1-1Zm-2 0Zm-17 0a2 2 0 0 0-1 1v-1a2 2 0 0 1 1 0Zm31 0Zm-8 0h1Zm-1 0h-1v1-1Zm-26 0h-1Zm-66 0v1-1Zm103 1h-1l-1-1h1l1 1Zm-23-1h-1a2 2 0 0 1 0 1h1a2 2 0 0 1 0-1Zm-5 1-1-1v2h1a2 2 0 0 1 0-1Zm-14-1Zm-3 1v-1 1Zm-1 0-1-1h1v1Zm39-1h-1v1a2 2 0 0 1 1 0Zm-9 0v1Zm-2 0v1Zm-14 1h-1v-1h1v1Zm-19-1v1-1Zm-63 0v1h-1v-1Zm110 1Zm-5 0Zm-13 0Zm-20 0h-1Zm-35 0h-1Zm47 0a2 2 0 0 1 0 1Zm23 0h-1l1 1a2 2 0 0 1 0-1Zm-10 0Zm-24 0-1 1h-1v-1Zm-71 0Zm68 0v1-1Zm-14 0v1-1Zm-7 1h-1l1-1v1Zm-1-1-1 1v-1Zm-7 0v1-1Zm-25 1v-1 1Zm-13-1v1-1Zm-6 0v1H8v-1Zm85 1a4 4 0 0 1-2 0 4 4 0 0 1 1 0Zm-16 0h-1 1Zm45 0h-1 1Zm-4 0Zm-24 0a2 2 0 0 1-1 0h1Zm-23 0Zm-15 0a1 1 0 0 1-1 0Zm-24 0h-1Zm-9 0h-1 1Zm-5 0Zm70 0a3 3 0 0 1-1 0 2 2 0 0 1 0 1l1-1Zm-20 0-1 1v-1Zm-15 0Zm-24 0Zm97 0v1h-1v-1Zm-7 0h-1 1Zm-21 0h-1 1Zm-10 0Zm-2 0v1Zm-24 0a2 2 0 0 0 0 1 2 2 0 0 0-1-1h1Zm-14 0h-1Zm-6 1h-1l1-1v1ZM3 12v1-1Zm118 0h-1l1 1Zm-25 0v1Zm-4 0a2 2 0 0 1 0 1Zm-20 0v1-1Zm-6 0v1h-1a2 2 0 0 0 0-1Zm-5 0v1-1Zm-10 1v-1 1Zm73 0h-1a4 4 0 0 1-1 1v-1h2Zm-39 0Zm-2 0Zm-27 0a2 2 0 0 0 0 1l-1-1a2 2 0 0 1 1 0Zm-9 0Zm-15 0h-2 1a2 2 0 0 0 1 0Zm-9 0h-1a2 2 0 0 1 0 1h1a1 1 0 0 1 0-1Zm102 0Zm-5 0Zm-38 0h-1a2 2 0 0 1 0 1h1Zm-5 0h-1v1a3 3 0 0 1 1-1Zm-19 0h-1Zm-28 0Zm65 0h-1 1Zm-9 0a1 1 0 0 1-1 1h1Zm-1 0h-1v1h1Zm-17 0-1 1a2 2 0 0 1 1 0 3 3 0 0 1 0-1Zm-13 1v-1 1Zm-2 0v-1 1Zm-7-1v2h-1v-1h1v-1Zm-20 0v1-1 1h1l-1-1Zm58 0h-1v1h1Zm-12 0a2 2 0 0 1-1 1 2 2 0 0 1 1 0Zm-15 1a2 2 0 0 0-1 0l1-1Zm-16-1v1-1Zm-10 1v-1 1Zm94 0Zm-50 0Zm-4 0h-2a2 2 0 0 1 2 1v-1Zm10 0h-1 1Zm-9 0Zm-51 0Zm34 0h-1Zm-8 0h-1Zm-19 0h-1 1Zm-3 0Zm-2 0Zm101 0v1-1Zm-40 0h-1 1Zm-11 0h-1v1h1ZM7 14Zm59 0h-1l-1 1h1a2 2 0 0 1 1 0Zm-7 0v1Zm-37 0v1Zm103 1v1l-1-1h1Zm-3 0h-1 1Zm-43 0Zm-22 0Zm-1 0Zm-24 0h-1 1Zm-3 0h-1 1Zm-1 0h-1 1ZM6 15Zm67 0Zm-19 0v1Zm-3 0Zm-8 0h-1v1l1-1Zm-7 0-1 1h1a2 2 0 0 1 0-1Zm90 0v2h-1 1l-1-1h1v-1Zm-81 0a2 2 0 0 1-1 1 2 2 0 0 1 2 0Zm-6 0h-1v1h1Zm-4 0v1ZM2 15v1a2 2 0 0 0-1 0l1-1Zm47 1Zm-2 0Zm17 0Zm-8 0Zm-14 0Zm-2 0h-1 1Zm83 0v1-1Zm-85 0Zm89 0v1-1Zm-5 0v1Zm2 1Zm-88 0ZM1 17Zm121 0Zm1 2v1a2 2 0 0 1 1 0l-1-1Zm-2 0v1Zm3 1Zm-2 0ZM2 20H1h1Zm125 0v1h-1v-1Zm-3 0v1Zm-1 0v1ZM1 21Zm127 0v1l-1-1a3 3 0 0 0 1 0Zm1 0v1-1Zm-2 1h-1a2 2 0 0 1-1 1h1l-1 1-1-1 2-2a2 2 0 0 0 1 1Zm-4 0ZM2 23H1h1Zm125 1-1-1v1a2 2 0 0 0 0-1h1a2 2 0 0 0 0 1Zm-4-1h-1v1h1ZM1 24H0Zm122 0h-1 1Zm3 1Zm2 0v1-1ZM1 26h1a1 1 0 0 0-1 0Zm123 1h-1 1Zm-3 0Zm0 0-1 1h1Zm-77 1v1l1-1h-1Zm84 0Zm-86 0h-1 1ZM4 28Zm52 0a2 2 0 0 1-1 1h2l-1-1Zm-9 0h-1a2 2 0 0 1 0 1h1a2 2 0 0 1 0-1Zm75 1h-1 1Zm-42 0h-1 1Zm-14 0h-1 1Zm-5 0a2 2 0 0 1-1 0h1Zm-23 0h-1 1ZM4 29Zm71 0Zm-1 0v1Zm-5 0Zm-1 0h-1l1 1Zm-16 0Zm-6 0h1-1Zm75 1-1-1 1 1Zm-51-1v1Zm-34 0h-1v1h1Zm6 1h-1l1-1v1Zm51 0Zm-9 0Zm-2 0h-1 1Zm-5 0Zm-19 0h-1Zm-7 0a2 2 0 0 0-1 0Zm-10 0h-1Zm76 0Zm-69 0h-1 1ZM8 30H7h1Zm44 0v1-1Zm36 0h-1v1h1Zm-30 0v1-1Zm-2 1v-1 1Zm-6-1v1-1Zm72 1Zm-5 0h-1 1Zm-2 0Zm-21 0Zm-1 0h-1a2 2 0 0 1 0 1h1a2 2 0 0 1 0-1Zm-20 0Zm-1 0h-1 1Zm-32 0h-1Zm-1 0v1l-1-1a2 2 0 0 0 1 0Zm88 0h-1Zm-38 0h-1 1Zm-38 0Zm-2 0h-1Zm-22 0v1a2 2 0 0 1 0-1ZM6 31H5Zm84 0h-1v1h1v-1Zm-13 0v1-1Zm-51 0h-1l-1 1h2-1Zm89 0v1h1l-1-1Zm-30 0v1a1 1 0 0 1-1 0l1-1Zm-4 0v1h-1l1-1Zm-48 0v1-1Zm-10 0h-1v1h1Zm91 1-1 1h1v-1Zm-15 0Zm31 0h-1Zm-18 0h-1 1Zm-91 0Zm-6 0Zm-5 1-2-1h1Zm112-1-1 1v-1Zm-31 0v1h-1v-1Zm-12 0Zm-5 0h-1Zm-57 0Zm85 0h-1 1Zm-53 0h-1ZM8 32v1l-1-1Zm115 0v1h-1v-1Zm-12 0v1h1l-1-1Zm-34 0v1-1Zm-61 0v1Zm104 1a2 2 0 0 0-1 0 3 3 0 0 0 1 0Zm-3 0h-1 1Zm-27 0h-1a1 1 0 0 1 1 1h-1v-1h1ZM6 33Zm84 0Zm-4 0-1 1 1-1Zm-7 0h-1 1Zm-56 0Zm-1 0Zm-2 0-2 1 1-1Zm-9 0h-1 1Zm105 0-2 1 1-1a2 2 0 0 0 1 0Zm-32 0v1-1Zm38 0v1-1Zm-3 0v1h-1v-1Zm-16 0h-1v1h1Zm-22 0v1-1Zm26 1h-1Zm-6 0h-1 1Zm-5 0h-1Zm-15 0h-1 1Zm30 1h-1v-1h1v1Zm-1 0h-1v-1l-1 1v-1h1Zm4 0h-1v-1a2 2 0 0 0 1 1Zm-12-1v1h-1v-1Zm-3 0-1 1v-1Zm-3 1Zm24 0v1a2 2 0 0 0-1-1Zm-1 0Zm-23 0h-1Zm5 0Zm16 0v1-1Zm-17 1Zm-7 0Zm24 0h-1Zm-7 0v1-1Zm-1 0v1-1Z"/>
</svg>
