<svg xmlns="http://www.w3.org/2000/svg" data-name="Capa 1" viewBox="0 0 156 147">
  <path fill="#ffed3b" d="M54 141h-1l1-1v1zm-8 6h-1 1zm9-14 1-1v1zm-3 4h-1l1-1v1zm5-5v-1zm1-2v-1zm-4 3a2 2 0 0 0-1 0l1-1v1zm-3 3v-1h1a3 3 0 0 0-1 1zm-3 3-1-1h1v1zm7-7h-1l1-1v1zm1-2v-1a1 1 0 0 1 0 1zm-4 4h-1 1zm-9 9a1 1 0 0 1 0-1v1zm1-1-1-1h1v1zm3-4v-1 1zm-2 1v-2l1 1a1 1 0 0 0 0 1 4 4 0 0 0-1 0zm5-4v-1zm1-1v-1a1 1 0 0 1 0-1l1 1h-1zm74-76v-1zm-77 78h-1 1zm4-4v-1 1zm2-4v-1h1a1 1 0 0 1 1-1v1h-1zm-6 7h-1v-1h1v-2h1a2 2 0 0 0 0 1v-1h1a4 4 0 0 0-1 2 3 3 0 0 0-1 0 3 3 0 0 1 0 1zm1-4a1 1 0 0 1 0-1h2a2 2 0 0 1-1-1v-1 1h1v3l-2-1zm10-9h2-2zm-6 7a1 1 0 0 1 0-1 1 1 0 0 1 0 1zm-13 11h1a1 1 0 0 1 0 1zm-15-3-1-1 1-1v-2a1 1 0 0 1 0-1h-3l2-1v-1a2 2 0 0 1-1 0v1h-1v-1h1v-2h-1v1a3 3 0 0 0-2-1h2l-1-1h-1v1l1-4v-1l-1 1v1h-1v1a3 3 0 0 1 0 2 2 2 0 0 0-1-1v-1h-2v-1a1 1 0 0 0 1 0l1-1v-1l2-1a8 8 0 0 1-2-1v-1h2l1-1v-2a3 3 0 0 0-2 0h1l-2 1v-1h-1a4 4 0 0 0 1-2h1l-1-1h1v1l-1 1h1l1-1 1 1v-1 1l-3-3h2v1l1-1v1l-1-1a1 1 0 0 0 0-2h1l1-1v-2h1-1v-1h1a7 7 0 0 1 1-2h2l2-1v-1l-2 1 1-1h1a1 1 0 0 1 0-1 4 4 0 0 0 1-1h2v-1h-3a4 4 0 0 1 0 1 3 3 0 0 0-1-1h1l1-1h1-1l3 1v-3h1l-1-1h-1 3v1h1v-1l1 1v-1a2 2 0 0 1 1-1h-1v1-3 1h2-1a3 3 0 0 1 1-1l-1-1v1l-1-1h2v1a3 3 0 0 0 1 1h-1v1a3 3 0 0 1 1-1v-2h3l1-2h-1a1 1 0 0 1-1 0l1 1h-2v-1a4 4 0 0 0 2-1h-2a2 2 0 0 0 0-1 2 2 0 0 0 2 1 3 3 0 0 0 1 1 2 2 0 0 1 1-1l-1-1a2 2 0 0 0 1 0l1-1 2 1v-2a3 3 0 0 1 1-2l1 1a4 4 0 0 1 1-1v-1h1l-1 1h1v-1h1a1 1 0 0 1 1 0v-1l1-1a4 4 0 0 1 1 1l1-1h-1l-3-1 1-1a4 4 0 0 0 3 0h-1v-1h1l1 1v-2l1 1 2-1-1-1a3 3 0 0 1-1 1h-1l1-1 2-1 1-1h2a2 2 0 0 0 0-1v-1l1 1 1-2 1 1a6 6 0 0 1 1-1l-1 1v-1a1 1 0 0 1 0-1h1v-2 1-1h1l1-1 1-1 1-1a3 3 0 0 1-1-1v2h-1a2 2 0 0 0 0-1v-1h1v-1l1 1 1 2h-1 1a2 2 0 0 1 1 0l-1-2h1l2-1h-1l-1-1a1 1 0 0 1 1 0l2-1v-1h-1v-1a4 4 0 0 0 1 0h1-1l1 1v-1h1-1v-1a4 4 0 0 0 1-1v2a1 1 0 0 0 1 0l1-1h-2l1-2 2 1v-3h1v1l1-2v-1l1 1v1a5 5 0 0 1 1-2 3 3 0 0 0 1 0h-1a1 1 0 0 1 1-1v-1 1a41 41 0 0 0 3-4l1 1-1 1 1-1h1v-3l1-1h2-3l4-1a6 6 0 0 1 0-2h1v1-1h1a1 1 0 0 1 1 0l-1-2a5 5 0 0 1 2-1v-1a2 2 0 0 1 1-1 3 3 0 0 0 1-1 3 3 0 0 1-2 0l1-1a2 2 0 0 1 0-1 1 1 0 0 1-1 0l2 1v-2a1 1 0 0 0 1 0 2 2 0 0 1-1-1h2v1h1a1 1 0 0 1 0-2 3 3 0 0 0-1 0v-1h1a1 1 0 0 1 0-1h2l-1 1h-1 1v1l1-1v-3a3 3 0 0 1 1 0 3 3 0 0 1 1-1l-2 1v-1a12 12 0 0 0 2-1v-1a1 1 0 0 0 1 0h-1a5 5 0 0 0 1-2 6 6 0 0 1 1-2h1a2 2 0 0 0 1 1v-1h1v-2a7 7 0 0 0 2-1v-1h1v1l1-1-1-3v1l1-1a1 1 0 0 0-1 0v-1h3v-1l1-1a2 2 0 0 1 0-1 2 2 0 0 1 1 1l1-1h1-1l1-1h2l-1-1h3l-1-1h2l1-1V3l-2 1h1a4 4 0 0 0 1-1v1h2l1-1h1a2 2 0 0 0-1-1 1 1 0 0 0 2 0l1 1 1 1h1v1l1-1-1-1 1 1V3a3 3 0 0 1 2 1V3l1 1-2 1h2v1l1-1 1 1v1l2 1v2l1-2 1 1-1 2v1h-1v1a2 2 0 0 1 1-1 1 1 0 0 1 0-1h1v2h-2a2 2 0 0 1 0 1h1v2a1 1 0 0 1 1 0h-1l-1 1a10 10 0 0 0 2-1l1 1h-1a11 11 0 0 1-1 2h-1l2 1a3 3 0 0 1 0-1l1 1a2 2 0 0 0-1 1 1 1 0 0 1 0 1l-1-1v-1l-1 1h-1l1 2a10 10 0 0 0-3 1l2-1v1a3 3 0 0 0-1 1h-1l-1 3a2 2 0 0 0-1 0l1-1-1-1-1 1-1 2h2l-2 2v-2a1 1 0 0 0-1 0 2 2 0 0 1 0 1h-1 1l-1 1h2l-1 1h-2a3 3 0 0 0 1 2l-2-2h-1a2 2 0 0 1 1 1v1h-2a1 1 0 0 0 0 1 1 1 0 0 1 1 0v1h-1v2a3 3 0 0 1-3 0v1h-2l1 1 1-1v1l-2 1 1 2h-1v-1a3 3 0 0 1-1 0h-1v1a2 2 0 0 0 0 1h-1l-1-1q-1-2-3 0h1l1 1h-2a2 2 0 0 0 0 1h-1v1h1v1l-1 1v-1l-1-1h-1v1h1l-1 1h-1a8 8 0 0 1-2 3h-1v1h-3l1 1h-1l-1 1 1 1v-1 3l-2-1v1l-3 1v1-1 3-1a2 2 0 0 1-2 1l1 1v-1l1 1h-1l-2 1h-1 1v1a3 3 0 0 1 2-1 2 2 0 0 0 1 1h-2v1l-1-1-1 1 1 1v1a11 11 0 0 0-2-3 2 2 0 0 1-1 0 2 2 0 0 1 0 1h1l-1 1v2a2 2 0 0 1 0-2l-1-1v-1 2h1l-2 1v2h-1v1a3 3 0 0 1-1-1l-1 1h1l1 1a3 3 0 0 0-1 2v-1 1h-1a2 2 0 0 0 0-1l-1 1 1 1h-1l-2-1v2l1-1 1 1-1 1c-1 1-1 0-1-1l-1 1v1h-1a1 1 0 0 0 0 1v-1 1h2v1h-4v2l1 1a9 9 0 0 1-3 1h1-1l-1 2a3 3 0 0 1-1 1 5 5 0 0 1-2 0v1h-1v1l1-1v1h-1v1l1-1v1-1h1v1l-1 1a2 2 0 0 0 0 1l-1 1h-1l1-2v1l-1-1v2h-1l-1 1h-1v1l-3 1a2 2 0 0 1 1 1l1-2 1 1a1 1 0 0 1 0 1l-1 1h-1v-1a3 3 0 0 1-1 1v1l-1 1-1-1v2l-1 1-1 1 1 1-1 1h-2v1h-2l1 1 1-1v1h-2v-1h-1a8 8 0 0 0 1 3 8 8 0 0 1-3 2v1h1a2 2 0 0 0-1 2 6 6 0 0 1-3 2 2 2 0 0 1 0 1 1 1 0 0 0-1 0v1l1 1v1l1-1-1 1-1 1h-2l2-2-2 1a3 3 0 0 1 0 1c1 1 2 1 3-1v1a6 6 0 0 0-1 3v-1l-1-1-1 1v-1h-1a2 2 0 0 1-1 0l1 1v2l1-1v1l-1 2v-1l-1-3-1 3v1l-1-1v3h-1a1 1 0 0 0-2 1h-1v2a1 1 0 0 0-1 0v-1 2l-1-1-1 1v1h-1v2l-2 1v1a1 1 0 0 1 2 0l-1-2h1c1 1 1 2-1 3h-2v-1c-2-1-4-2-5-1l1 1h-1v-1l-1 1-1-3a4 4 0 0 0-2 1v2-2h-2a4 4 0 0 0 1-1l-1 1h-3a1 1 0 0 1 0-1h1v-1h-1v-1l-1 1a4 4 0 0 1-1 4zm21-2v-1h-1l1-1 1 1-1 1zm14-14v-1zm-14 12h1-1zm8-6v-2 2zm-17 16v-1l1 1zm15-16v-1a1 1 0 0 1 1 0v1h-1zm-7 8v-1 1zm-9 3h2v-1h1v1l1-1v2h1-1v1l-1-1 1-1zm20-16h-1 1a1 1 0 0 1 0 1zm5-5h1-1zm-26 27h-1 1zm2-3a1 1 0 0 1 1-1v1a3 3 0 0 0-1 0zm35-36s0 1 0 0zm-37 38 1-1zm15-15v-1h-1zm10-12h1zm2-1h-1l1-1v1zm25-26h-1l1-1v1zm-47 47h1-1zm13-13a3 3 0 0 1 1-1l-1-1v2zm13-14a1 1 0 0 1 0-1h1v1a2 2 0 0 0-1 0zm10-10h1zm63-64zM37 139h-1 1zm6-6zm4-4a4 4 0 0 1-2 1l2-1zm1-1 1-1h-1zm17-18h-1a2 2 0 0 0 1-1h1a3 3 0 0 1-1 1zm-30 31h-1l1-1v1zm7-7v-1zm2-2a1 1 0 0 0 0-1zm25-26v-1 1zm64-66h-1a1 1 0 0 1 1 0zM32 142a1 1 0 0 1 0-1h2v1h-2zm23-22 1-1a2 2 0 0 1-1-1l-1 1a2 2 0 0 1 1 1zm4-6h2-1l-1-1a2 2 0 0 1 0 1zm14-13zm3-3v-1l1 1h-1zm1-1v-1a1 1 0 0 1 1 0v1h-1zm-38 39 1-1v-1h-1a3 3 0 0 1 0 1zm9-9v-1h-1zm1-2h1v-1l-1 1zm14-15 1-1v1h-1zm19-18v-1zm62-63-1-1h1zM36 139l-1-1a2 2 0 0 0 1 0 1 1 0 0 1 0 1zm4-5h1l-1-1v1zm13-13v-1 1zm20-21 1-1zm34-34v-1h1zm-47 47a3 3 0 0 1 1-1 2 2 0 0 1-1-1v1zm-21 22v-1h-1a2 2 0 0 1 1 1zm9-9v-1h-1zm24-25v-3l1 1zm69-71h-1 1zM74 98zm14-14h-1a1 1 0 0 1 1 0zm6-7 1-1a1 1 0 0 1 0 1h-1zm2-1v-2 1zm6-7v-1a1 1 0 0 1 0 1zm24-25h1-1zm13-13v-1l1 1zm7-6-1-1h1zm-84 84a6 6 0 0 1 2-1h1l-1-1a5 5 0 0 1-2 1zm16-16h1a1 1 0 0 1-1 0zm-44 45v-1l1 1h-1zm4-3v-1h-1zm23-24v-1a2 2 0 0 1 1-1h-1v1zm22-23v-1h1zm15-16a1 1 0 0 1 0-1h1zm24-24v-1 1zm7-8 1-1h1l-1 1h-1zm6-5a1 1 0 0 1 0-1 1 1 0 0 1 0 1zm-68 68a4 4 0 0 1 1 0 3 3 0 0 1-1-1v1zm19-19a1 1 0 0 1 0-1l1 1zm14-14v-1h1zm24-24v-1h1zm-94 96v-1h1zm7-7v-1l-1 1zm20-21v-1 1zm9-10h1-1zm2-2v-1 1zm24-24a3 3 0 0 0-1-1 2 2 0 0 0 2 0l-1 1zm14-14v-1zm4-6v-1a1 1 0 0 1 1 0h1v-1 2h-2zm40-39-1-1h1zM36 135a1 1 0 0 0-1 0zm23-24h1v-1l-1 1zm4-4h1a3 3 0 0 1-1-1zm19-20h1zm7-6v-2a2 2 0 0 0 0 1zm4-5 1-1v1zm9-10 1-1v1h-1zm-70 72v-1a6 6 0 0 1 1-1h1v1h-1a1 1 0 0 1 0 1h-1zm38-38-1-1v1zm2-2v-1h-1zm25-27a4 4 0 0 0 1-2v1a3 3 0 0 1 0 1zm9-9v-1l1 1zm16-16h-1l1-1h1v1a2 2 0 0 0-1 0zm8-9a1 1 0 0 0 1 0 2 2 0 0 1 0-2l-1 1-1 1a2 2 0 0 1 1 0zM31 139v-1 1zm5-4v-1 1zm36-39h1a1 1 0 0 1 0-1 3 3 0 0 1-1 0h-1zm6-5v-2a5 5 0 0 1-1 2zm18-19 1-1v1zm27-27v-1a1 1 0 0 1 0 1zm-63 64zm8-9h1a2 2 0 0 1 0-1h-1a1 1 0 0 1 0 1zm2-1v-1h-1zm16-17h1l-1-1a2 2 0 0 1-1-1 3 3 0 0 1 0 1 4 4 0 0 1 1 1zm12-13h1-1zm2-2h1-1zm7-7v-1h-1l1-1 1 1h-1l1 1zm20-19v-2l-1 1h1l-1 1v-1l-1 1h2zM71 98l-1-1zm11-12a2 2 0 0 1 1-1l-1-1a2 2 0 0 1 0 2zm14-15a2 2 0 0 0 1-1 1 1 0 0 1 0 1zm16-16h-1a1 1 0 0 1 1 0zm9-10h1a1 1 0 0 1-1 0zm-91 94v-1h1zm49-50h-1zm4-4v-1a3 3 0 0 0 1-1v-1a3 3 0 0 1-2 1l1 1zm-10 9h1l-1-1-1 1a1 1 0 0 0 1 0zm8-8 1-1-1 1zm50-51 1-1a1 1 0 0 0-1 0zM98 68zm8-8a1 1 0 0 1 0-1h1zm18-18 1-1-1-1v1a4 4 0 0 1-1 1zm3-4h1-1zm2-2zM30 137v-1l1 1zm40-40v-1zm11-11v-1h-1zm63-65 1-1h-1zM87 79l1-1v-2l-1 1a2 2 0 0 1 0 1zm7-7v-1l-1 1zm35-37zM29 138l-1-1h-1l1-1a3 3 0 0 0 1 0 1 1 0 0 1 0 1zm3-4a1 1 0 0 0 0-1v1zm42-42v-1a1 1 0 0 0 0 1zm21-23zm1 0a1 1 0 0 0 0-1zm23-24 1-1h-1zm4-4h-1zm0 0 1-1h-1zm22-22v-1l-1 1zM79 85h1-1zm18-18 1-1h-1zm3-3 1-1h-1v1zm9-9v-1 1zm6-6v-2l-1 1a2 2 0 0 1 1 1zm-88 89v-1h-1v-1h1-1l1 1v1h1zm79-80v-1a3 3 0 0 1 1-1h-1a3 3 0 0 1 0 2zm6-7 1-1-1 1zm4-4h-1zm32-32-1-1a1 1 0 0 1 0-1 2 2 0 0 0 1 0v2zm-46 46v-1l-1 1a1 1 0 0 0 1 0zm2-2a1 1 0 0 0-1 0zM87 76v-1 1zm8-8v-1 1zm13-14h1a1 1 0 0 0-1 0zm3-3h1-1zm-81 83a1 1 0 0 0-1 0h1zm82-84v-1 1zm-87 88h1zm5-5h1-1zm-2 2v-1a1 1 0 0 0 0 1zm86-88-1-1v1zm33-34v-1a1 1 0 0 1 1 0zM30 133v-1h-1zm-3-2-1-1a3 3 0 0 1-1 1h1a1 1 0 0 0 1 0zm1-2h1-1zm-2 3-1-1v1a1 1 0 0 0 1 0zm1-2h1l-1-1v1zM144 10V9v1zM22 134l-1-1 1-1 1 1zm2-3h1-1zm1 0v-1zM143 9h1V8h-1v1zM20 134v-1a1 1 0 0 1 1 0v1a4 4 0 0 0-1 0zm-2 2v-1l1 1zm3-3v-1l1-1h-1a3 3 0 0 1 1-1h-2l1-1h1a4 4 0 0 0 0 3 3 3 0 0 0-1 1zm4-4-1-1 1 1zM141 7h1-1zM19 131h1l-1-1h1a3 3 0 0 0 1 1l-1 1a3 3 0 0 0-1-1zm4-4 1-1-1 1zM141 5V4h1zM22 126h1-1zm-4 3v-1l1 1zm-2 2v-1 1zM139 4V3l-1 1a1 1 0 0 0 1 0zM18 125l1-1v-1l-1 2zm3-3h1-1zm0 0a1 1 0 0 0 0-1h-1zm74-77v-1a1 1 0 0 0-1 0v1a1 1 0 0 0 1 0zm-82 83zm84-86 1-1-1 1zm37-38h-1zM83 56a3 3 0 0 1 1-1h-1l-1 1h-1 2zm9-9 1-1a2 2 0 0 1-1 0h-1a2 2 0 0 1 1 1zm-73 74h1a1 1 0 0 0-1 0zm40-42h1-1zm14-14v-1a1 1 0 0 0 0 1zm5-5 1-1h-1l-1 1zm22-23h1l-1-1v1zm33-33V3zM64 74h-1zm1-1h-1zm5-4v-1h-1zm1-2v-1l-1 1zm15-16zm6-6h-1a1 1 0 0 0 1 0zm-74 75a1 1 0 0 1 0-1h2-1l-1 1zm50-50v-1zm34-35v-1 1zm-7 6v-2h1v2h-1zM46 92v-1h-1zm8-9v-1 1zm2-2a1 1 0 0 1 0-1v-1 2zm5-5 1-1h-1a1 1 0 0 0 0 1zm19-20v-1l1 1zm6-6v-1a2 2 0 0 0 1 0v-1 1zm11-11h-1l1-1v1zm-75 77v-1zm67-70a1 1 0 0 1 0-1h1c0 1 0 1 0 0v1zm40-40-1-1v1zM85 51l-1-1h1zM50 86l1-1h-1v1zm29-30h-1l1-1v1zm1-2v-1a1 1 0 0 1 1 0v1h-1zm7-6h-1l1-1v1zm-71 72v-1 1zm6-6v-1 1zm2-2h-1zm20-20v-1a1 1 0 0 0-1 0v1zm1-1v-1a2 2 0 0 1 0-1h-1v1a2 2 0 0 1 1 0zm19-20h-1l1-1a1 1 0 0 1 1 0zm1-1v-1l1-1-1 2zm31-32v-1a1 1 0 0 1 1 0zm2-1-1-1a3 3 0 0 0 1 1zm-86 87v-1zm37-38h-1zm36-37v-1h1zm3-3h-1 1zm21-21v-1h-1a2 2 0 0 1 1 1zm21-22V2a1 1 0 0 1 0 1zM47 87h1v-1h-1a1 1 0 0 0 0 1zm13-12-1-1h1zm50-52 1-1-1-1h-1v1h1zm-87 89h-2a2 2 0 0 1 0 1l2-1zm29-30a1 1 0 0 1 0-1v1zm4-4v-1a1 1 0 0 1 0 1zm46-48a1 1 0 0 1 0-1v1c1 0 1 0 0 0zm11-10v-1 1zm-90 91a3 3 0 0 1 0-2 3 3 0 0 1 0 2zm15-15v-1 1zM8 126zm17-18a1 1 0 0 1 1 0l-1-1v1zm89-90v-1zm5-6h1v-1l-1 1zm4-7 3-1v1zM16 118h-1a1 1 0 0 1 0-1h1zm30-31-1-1h1zm11-11-1-1h1v1zm5-6v-1l1 1zm55-56 1-1-1 1zM35 98l1-1h-1v1zm51-53v-1l1 1zm40-41a1 1 0 0 1 1 0zM14 119v-1h1zm11-12h1l-1-1-1 1h1zm34-34-1-1h1v1zm59-60v-1h-1zM16 116v-1a2 2 0 0 0 1 0 4 4 0 0 0-1 1zm4-3-1-1h1zm26-28v-1a2 2 0 0 1-1 0h2l-1 1zm81-83V1l1 1zM45 86l1-1zm5-4-1-1v-1h1v2zm6-8 1-1v1zm55-55-1-1a1 1 0 0 1 1 0zm0-1a1 1 0 0 1 0-1h1zm3-3 1-2v2zm8-9h1-1zM20 111l1-3v3a2 2 0 0 0-1 0zm31-31v-1zm-37 37h-1 1zm3-3v-1zm16-16v-1zm20-21v-1l1-1v1zm-24 25-1-1h1zm5-7 1-1v1h-1zm5-5a1 1 0 0 1 0-1l1 1zm15-15h-1 1zm-30 30v-1l1 1h-1zm1-2h1v-1h1v1l-1 1zm-4 4a1 1 0 0 1 1 0 2 2 0 0 0-1 0zm12-11v-1h1zm3-3v-2 2zm2-3v-1 1zm-23 24-1-1a2 2 0 0 0 1 0zm0-1a1 1 0 0 1 0-1h1zm23-24h1zm-5 6a1 1 0 0 1 0-1zm-16 15h-1 1zm16-17h-1l1-1v1zm7-7a1 1 0 0 1 0-1v1zm-23 23v-1 1zm6-6-1-1h1zm1-2h-1 1z" class="cls-1"/>
  <path fill="#ffed3b" d="M7 49v-1l1 1zm-7-7v-1h1l-1 1zm15 8h2-2zm-4-4h1l-1 1zm6 5zm2 1v-1 1zm-4-4a2 2 0 0 0 1-1v1h-1zm-3-3 1 1a3 3 0 0 0-1-1zm-3-2v-1 1zm7 6v-1l1 1zm2 1 1-1v1a1 1 0 0 1-1 0zm-4-4v-1 1zM4 38a1 1 0 0 1 1 0H4zm1 1 1-1v1zm4 3 1-1v1H9zm-1-2h2v1a1 1 0 0 0-1 0 4 4 0 0 0-1-1zm5 4 1 1zm1 1h1a1 1 0 0 1 1 0l-1 1zm85 66v-1 1zM11 42h1zm5 4 1-1v1h-1zm4 2h2a1 1 0 0 1 0 1h-1l1-1h-1zm-8-6h1l1-1v1h2a3 3 0 0 0-1 1h1v1a4 4 0 0 0-2-1 3 3 0 0 0-1-1 3 3 0 0 1-1 0zm4 1h1a1 1 0 0 1 1 0v2-1a2 2 0 0 1 1-1h1l-1 1v1h-3v-2zm11 9v1c1 0 1 0 0 0v-1zm-8-6a1 1 0 0 1 1 0h1l-1 1a1 1 0 0 1-1 0zM7 35v1a1 1 0 0 1-1 0zm2-16v-1l2 1h1v-1a1 1 0 0 1 1 0v-2l1 1h1a2 2 0 0 1 0-1h-1 1v-1l1 1h1v-1h-1a3 3 0 0 0 1-2v2h1l1-2h-1 4l-1-1-1 1v-1l-1-1a3 3 0 0 1-2 1 3 3 0 0 0 1-1s-1 0 0 0h1V9a1 1 0 0 0 1 1h2v1l1 1a8 8 0 0 1 1-2h1v1l2 2 2-1a3 3 0 0 0-1-2v1l-1-1 1-1V8a4 4 0 0 0 2 1l1 1-1 1-1-1 1 1-1 1h1l2-3v1l1 1h-2l1 1h-1v1l1-2a1 1 0 0 0 2 0h1l-1 1 2 1h1l1-1c0 1 0 1 0 0v1a6 6 0 0 1 2 1v1l1 1 1 2h1l-1-2 1 1v1a1 1 0 0 1 1-1 4 4 0 0 0 1 2l1 1v1-3a3 3 0 0 1-1 0v-1a2 2 0 0 0 1 0l1 2v-1h1l-1 3h3v1l1-1-1-1h1v3h-1v1h1v2a2 2 0 0 1 1 0v-1l2-1v1h-1v2-1a3 3 0 0 1 2 0l-1-1h1a2 2 0 0 0 1 1h-1v1a3 3 0 0 0-1 1l-1-1h-1a3 3 0 0 1 1 1h2l1 2 1 1h1a1 1 0 0 1-1-1h-1v-1h1a4 4 0 0 0 1 1v-1a2 2 0 0 0 1-1h1a2 2 0 0 0-1 2v1a3 3 0 0 0-1 0 2 2 0 0 1 0 1h2v-1 1a2 2 0 0 0 0 1h1v2h1a3 3 0 0 1 2 1l-1 1a4 4 0 0 1 2 1h1v1h-1v-1h-1l1 1 1 1 1 1h1a4 4 0 0 1-1 2h1v-3l1-1v1h1a4 4 0 0 0 0 3h1v-1 1l-1 2 2-1v1h-1l2 2v-1a3 3 0 0 1 0-1h-1v-1l2 1 1 2 1 1v2a2 2 0 0 0 1-1v1l2 1v1h-1a7 7 0 0 1 1 1 1 1 0 0 1 1-1v1h2v1h1l-1 1h2v1l2 1a3 3 0 0 1 0-1h-1v-1a2 2 0 0 0 1 0h1l1 1h-1v1h-2v1h2l1 3 1-1h-1 1v-1a1 1 0 0 1 0 1h1l1 1h1a4 4 0 0 0 1 1l-1-1v1l1 1v-1a4 4 0 0 0 1 0l-1 1a1 1 0 0 0 0 1l1 1v-2l1 1v2h3l-1 1h3v1l-2 1a5 5 0 0 1 2 1 3 3 0 0 0 1 0 1 1 0 0 1 1 0v1a41 41 0 0 0 4 2h-3l2 1v1l3-1 1 1v2-2l1 3a6 6 0 0 1 2 0v1h-1l1 1v-1l1 1a1 1 0 0 1 0 1l2-1a6 6 0 0 1 1 1v1l1-1v1a2 2 0 0 1 1 0 3 3 0 0 0 1 1 4 4 0 0 1 0-2l1 2a3 3 0 0 1 1-1 1 1 0 0 1 0-1v2h1a1 1 0 0 0 0 1 3 3 0 0 1 1-1v2h-1l1 1a1 1 0 0 1 2 0 3 3 0 0 0 0-1v-1l1 2a1 1 0 0 1 1 0l-1 1v-1l-1 1s0-1 0 0l1 1h3a3 3 0 0 1-1 1 3 3 0 0 1 2 0l-1-1v-1a12 12 0 0 0 2 2h1a1 1 0 0 0 0 1v-1a5 5 0 0 0 2 1 7 7 0 0 1 2 1v1a2 2 0 0 0-1 1h1l1 1 2-1a7 7 0 0 0 1 3h1l-1 1h1l2-2 1 1h-1l1 1a1 1 0 0 0 0-1v-1l1 1v3-1h1l1 2a2 2 0 0 1 1 0 2 2 0 0 1 0 1h1l-1 1v1l1-1h1v2l1-1v3h1v1l2 1-1-2 1 1a4 4 0 0 0 0 1h-1l1 2h-1l1 1h1v1a2 2 0 0 0 1-1 1 1 0 0 0 0 2l-1 1-1 1v1h-1l1 1 1-1v1a3 3 0 0 1 0 2h-1l1 1h-1l-1-2v3h-1l1 1-2 1v2h-2l1 1-2 1v-1h-2a2 2 0 0 1 1 1 1 1 0 0 1 1 0h-2v-1a2 2 0 0 1-1-1l-1 1h1v1l-2-1a1 1 0 0 1 0 1l-1-1a9 9 0 0 0 1 2l-1 1v-1a10 10 0 0 1-3-1h1l-1-1v2a3 3 0 0 1 1 1h-1a2 2 0 0 0-1-1 1 1 0 0 1-1 0h1v-2h-2a11 11 0 0 0-2-2l1 2h-1a3 3 0 0 0-1-1v-1h-3v-1a2 2 0 0 0 0-1l1 1 1-1-1-1h-3l1 1v1l-2-2 1-1h1a1 1 0 0 0 0-1 2 2 0 0 1-1 0v-1l-1 1h-1l1 1h-1l-1-2a3 3 0 0 0-1 1h-1l3-2-1-1a2 2 0 0 1-1 1v-2h-1a1 1 0 0 0-1 0 1 1 0 0 1 0 1h-1v-1h-1a3 3 0 0 1-1-2h-1v-2l-1 1h1l-1 1-1-2-2 1v-2a2 2 0 0 1 1-1h-1l-1-1a2 2 0 0 0 0 1l-1-1 1-1v-3 1l-1 1v-2a2 2 0 0 0-1 1l-1-2h-1l1 1h-2l1-1 1-1h-1v1l-1-1h-1v-2a7 7 0 0 1-3-1 2 2 0 0 1 0-1h-1l-1-2 1-1h-1v2l-1-1v-1l-1-1v2h-1v-1l-1 1v-2l-2-3v-1h-1l1 1h-3l1-1a2 2 0 0 1-1-1h-1v1h1l-1 1v-1l-1-2-1-1v1a3 3 0 0 1 1 2 2 2 0 0 0-1 1v-2h-1v-1l-1 1-1-1a12 12 0 0 0 2-1 3 3 0 0 1 0-1v-1a3 3 0 0 1-1 1h1l-1 1-1-1h-2a2 2 0 0 1 3 0v-1l1-1h-1v1h-1l-1-1h-1l-1-1-1-1a3 3 0 0 1 1-1h-1v1l-1 1a2 2 0 0 0-2-1h1-1v-1a3 3 0 0 0 1 0l-1-1-1 1-1-1 1-1-1-1v2h-1v-2h-1v-2a1 1 0 0 0-1 0v1h-1v1h1l-1 1v-5l-3 1v1h-1a9 9 0 0 1-1-3v1l-1-1-1-1a3 3 0 0 1-1 0l-1-2-1-1h1l-1-1v1c0 1 0 1 0 0h-2 1v2l-1-1a2 2 0 0 0-1 0l-1-1v-1l1 1 1-1h-3v-1l-1-1v-1l-1 1-1-3a2 2 0 0 1-1 0v1h2l-1 1a1 1 0 0 1-1 0h-1a1 1 0 0 1-1 0l1-1h1a3 3 0 0 1-1-1h-2v-2h-2l-2-2-1 1-1-2-1-1-1-1 1 2h-1l-1-2h1v-1a8 8 0 0 0-2 1l-3-3v1h-1a2 2 0 0 0-2 0 6 6 0 0 1-2-3 2 2 0 0 1-1 0 1 1 0 0 0 0-1h-1v1l-1 1v-1l-1 1h1l-1-1h1l-2-1v-1l2 2v-1l-1-1a3 3 0 0 1-1-1q-2 2 1 4h-1a6 6 0 0 0-3-1l1-1h1l-1-1v-1l1 1v-1h-1a2 2 0 0 1 1-1l-1-1-1 2h-1l1 1h-1l-2-1h1l2-1-3-1v1l-1-1h1v-1h-3a1 1 0 0 0-1-3h-2a1 1 0 0 0 0-1h1v-1l-2 1v-2h-1l-1-1h-1l-2-2-1 1a1 1 0 0 1 1 1h1-3v-2h1v-5H9h1v-2l3-1a4 4 0 0 0-1-2H9h2v-2a4 4 0 0 0 1 1v-1h-1v-4a1 1 0 0 1 1 0l-1 1h2v-1l1 1v-1l-1-1a4 4 0 0 1-4 0zm4 21 1-1v2h-1zm15 13 1-1v1zM14 40l1-1v2l-1-1zm8 7h1-1zM3 32h1v1zm19 14v-1a1 1 0 0 1 0 1v1-1zm-10-7h1zm-4-8h1v1h1v1H9l1 1-2 1H7v-1h1zm18 17 1 1a1 1 0 0 1-1 0zm6 5 1 1h-1v-1zM2 30h1-1zm4 2h1l-1 1a3 3 0 0 0 0-1zm39 30 1 1h-1v-1zM4 30v1zm16 13h1v-1zm13 9 1 1h-1zm1 1 1 1zm29 23v-1l1 1h-1zM11 35v-1zm14 11a3 3 0 0 1 1 0l1-1-2 1zm16 12v-1a1 1 0 0 1 1 0v1h-1zm10 9 1-1a1 1 0 0 1 0 1zm71 55h1zM7 31h1l-1 1zm7 6zm4 3h1a3 3 0 0 1-1-2v2zm2 2h1-1zm20 14a2 2 0 0 0 1 0v1a3 3 0 0 1-1 0zM5 30v-1h1v1zm8 6h1zm3 2h1v-1a1 1 0 0 0-1 1zm28 22h1-1zm73 56a1 1 0 0 1 0 1 1 1 0 0 1 0-1zM4 27a1 1 0 0 1 1 0v2H4v-2zm25 21h1l-1-1a3 3 0 0 1 0 1zm6 3v2-1h1v-2a2 2 0 0 1-1 1zm14 12 1 1zm4 3h1l-1 1v-1zm1 1h1a1 1 0 0 1 0 1h-1v-1zM11 33l1 1h1-1a3 3 0 0 1-1-1zm10 8h1l-1-1zm2 2v-1zm16 11 1 1v1l-1-1v-1zm21 17v1zm70 55v1zM8 30a2 2 0 0 0 1 0 1 1 0 0 1-1 0zm5 4v1l1-1h-1zm14 12h1v-1zm23 18v-1l2 1h-1zm39 30v-1l1 1h-1zM37 52a3 3 0 0 1 0 1 3 3 0 0 1 1-1l-1-1zM12 33h1a1 1 0 0 0 0-1 2 2 0 0 1-1 1zm10 8h1a1 1 0 0 0 0-1zm28 21h2v1zm78 61zM52 64h1zm16 12zm8 5 1 1a1 1 0 0 1-1 0v-1zm1 2h2a1 1 0 0 1-1 1zm7 6 1-1v1a1 1 0 0 1-1 0zm28 21h1v1h-1v-1zm14 12 1-1v1zm8 6v-1h1l-1 1zM40 53a5 5 0 0 1 2 2v1-1a5 5 0 0 1-1-2zm18 14v1a1 1 0 0 1 0-1zM9 28v1-1zm3 4 1-1h-1zm27 20v1a2 2 0 0 1 1 0v-1a1 1 0 0 1-1 0zm25 20 1-1v2zm17 13a1 1 0 0 1 1 0v1zm27 21h1l-1 1zm9 7h1v1h-1v-1zm5 5a1 1 0 0 1 1 0zM46 57a4 4 0 0 1 1 1 3 3 0 0 1 1-1h-2zm22 18v-1a1 1 0 0 1 1 0l-1 1zm16 12h1l-1 1zm27 21h1l-1 1zM4 25l1-1v1zm8 6v-1zm23 18h1l-1-1zm10 8h1zm3 2h1l-1-1zm27 20h1a2 2 0 0 0-1 1zm15 13h1zm7 4a1 1 0 0 1 0 1h1-2 1v-1zm43 35h1zM11 30h1a1 1 0 0 0-1-1zm27 21h1-1zm5 3v1a3 3 0 0 1 1-1h-1zm21 17h1zm8 6h1a3 3 0 0 0-1 0zm5 4zm11 8v1-1zM8 26l1 1a6 6 0 0 1 2 0v1h-1v-1a1 1 0 0 1-1 0H8v-1zm42 34h1v-1zm3 2 1-1h-1zm30 22a3 3 0 0 0 1 1 3 3 0 0 1-1 0zm9 9v-1h1l-1 1zm18 13 1 1h-1a2 2 0 0 0 0-1zm10 8a1 1 0 0 0 0 1 2 2 0 0 1 1-1v-1l-1-1v1a2 2 0 0 1 0 1zM7 26v-1h1l-1 1zm5 4h1-1zm42 32v1a1 1 0 0 1 1 0 3 3 0 0 1 1-2h-1zm6 5 1 1h1v-1a4 4 0 0 1-2 0zm21 16 1 1h-1zm30 24h1a1 1 0 0 1-1 0zM40 51h1-1zm10 8a2 2 0 0 1 1-1 1 1 0 0 1-1 0zm1 1h2l-1-1zm19 14v1l1-1a2 2 0 0 1 1-1 3 3 0 0 1-1 0 4 4 0 0 1-1 1zm14 11 1 1h-1v-1zm2 1 1 1h-1v-1zm8 7 1-1v1-1h2l-1 1h-1v1zm22 17h1-1v-1 1zM53 61v-1zm13 10a2 2 0 0 1 1 0 2 2 0 0 1-1-1zm17 12a2 2 0 0 0 1 0l-1 1a1 1 0 0 1-1 0zm16 14 1-1a1 1 0 0 1 0 1zm12 8v1a1 1 0 0 1 0-1zM7 25l1-1v1zm55 42v1l1-1h-1zm5 4 1 1a3 3 0 0 0 0 1l1-1a3 3 0 0 1 0-2l-1 1zm-10-8v-1h-1a1 1 0 0 0 1 1zm9 7zm56 44h1a1 1 0 0 0 0-1zM85 85v-1l1 1zm9 7a1 1 0 0 1 1 0zm20 15 1 1h1a4 4 0 0 1-1-1zm4 3 1 1-1-1zm2 2h1-1zM9 24l1 1H9zm45 36v-1zm12 9h1-1zm72 56v1-1zM74 75v1l2-1h-1a2 2 0 0 1-1 0zm7 6 1-1h-1zm40 31h1zM8 23h1v-1l1 1a1 1 0 0 1-1 0zm4 3a1 1 0 0 0 1 0v-1a1 1 0 0 0-1 1zm47 37h1a1 1 0 0 0-1 0zm25 19v-1zm1 1a1 1 0 0 0 0-1zm26 20 1 1v-1h-1zm4 3v1l1-1h-1zm1 1zm24 19v-1zM66 68h1l-1-1zm21 16v-1zm3 2v1h1l-1-1zm9 8h1-1zm7 5h2-1a2 2 0 0 1-1 0zM7 21h1l1-1h1v1l-1-1v1H8v1zm90 70v1a3 3 0 0 1 1 0v-1a3 3 0 0 1-1 0zm7 6h1-1zm4 3h1-1zm36 28h1a1 1 0 0 1 1 0 2 2 0 0 0 0 1l-2-1zM93 88v-1a1 1 0 0 0 0 1zm2 1v1a1 1 0 0 0 0-1zM76 74l1 1-1-1zm9 7 1 1-1-1zm15 12 1 1a1 1 0 0 0 0-1zm3 3h1v-1zM12 24a1 1 0 0 0 0-1v1zm93 73h1l-1-1zM7 20l1-1-1 1zm6 4h1-1zm-2-2h1a1 1 0 0 0-1 0zm97 76h1v-1zm38 30 1-1a1 1 0 0 1 0 1zM13 23l1 1v-1zm1-3h1l1-1a3 3 0 0 1-2 0 1 1 0 0 0 0 1zm2 2h1v-1zm-2-3v-1 1zm2 2v-1zm132 103h1zM11 16l1-1h1l-1 1zm3 2h1-1zm1 0v1l1-1h-1zm135 105v1l1-1a1 1 0 0 0-1 0zM11 14v-1h1a1 1 0 0 1 0 1v1a3 3 0 0 0-1-1zm-2-2h1-1zm3 2h1l1 1v-1a3 3 0 0 1 1 1v-1h1v2l-3-1a3 3 0 0 0-1-1zm5 4v-1 1zm134 103h1-1zM14 12v1h1a2 2 0 0 0-1 1l-1-1a3 3 0 0 0 1-1zm4 4 1 1v-1h-1zm136 105v-1l1 1h-1zM19 15h1-1zm-3-4h1l-1 1zm-2-2h1l-1 1zm140 109h1l-1-1a1 1 0 0 0 0 1zM20 11l2 1v-1l-2-1zm3 2 1 1v-1h-1zm1 0a1 1 0 0 0 1 0l-1-1zm85 65h1a1 1 0 0 0 0-1l-2 1a1 1 0 0 0 1 0zM16 6V5l1 1h-1zm96 75h1l-1-1zm41 32h1-1zM96 68a3 3 0 0 1 1 0l-1-1v-1 2zm10 8h1a3 3 0 0 1 0-1 2 2 0 0 1-1 1zM24 11a1 1 0 0 0 0-1zm46 36h1-1zm16 12h1a1 1 0 0 0-1 0zm5 4a2 2 0 0 1 1 1v-2zm26 20h1l-1-1zm37 29zM76 51v-1zm1 0h1-1zm5 5h1l-1-1zm2 1h1l-1-1zm17 13v1l1-1h-1zm7 6a1 1 0 0 0 0-1 1 1 0 0 0 0 1zM25 10a1 1 0 0 1 1 0l1 2-1-1-1-1zm56 44v1l1-1h-1zm38 30 1 1v-1zm-6-6h1l1 1h-2v-1zM56 34l1 1v-1zm10 8h1l-1-1zm2 2h1a1 1 0 0 1 1 0l-1-1zm6 4h1a1 1 0 0 0-1 0zm21 17 1-1 1 1-1 1zm7 5h1a2 2 0 0 0 1 1zm12 10 1-1v1zM30 13v1l1-1h-1zm76 60a1 1 0 0 1 1 0l1 1h-1v-1zm45 35h1l-1-1zm-49-39h1-1zM63 38v1-1zm32 26 1-1v1zm3 1a1 1 0 0 1 1 1h-1v-1zm6 6 1-1v1zM25 8h1a1 1 0 0 1-1 0zm6 5h1zm2 2 1-1zm23 17 1 1a1 1 0 0 0 0-1h-1zm2 2a3 3 0 0 1 1-1l-1-1a2 2 0 0 1 0 2zm21 16h1a1 1 0 0 1 0 1zm1 2 1-1 1 1h-2zm36 27v-1h1a1 1 0 0 1 0 1l-1 1zm1 1 1-1v1a3 3 0 0 0-1 0zM20 4h1v1zm42 33h1-1zm41 32h1v1zm3 2h1v1zm24 19h1v-1a3 3 0 0 1-1 1zm24 19 1-1v1a1 1 0 0 1-1 0zM61 36h1v-1a1 1 0 0 0-1 0zm14 10h1l-1 1zm57 45 1 1 1-1v-1h-1v1zM34 14v-2a2 2 0 0 1-1 0l1 2zm33 26v-1a1 1 0 0 1 1 0v1h-1zm5 3h1a1 1 0 0 1-1 0zm52 41a1 1 0 0 1 1 0h-1zm12 9v1-1zM35 14a3 3 0 0 1 2 0v-1a3 3 0 0 1-2 1zm16 13h1-1zM18 1V0v1zm20 14a1 1 0 0 1 0 1v-1zm100 79v1l1-1h-1zm6 5 1 1v-1h-1zm7 3h1v3h-1zM27 7a1 1 0 0 1 1 0v1zm34 27 1-1v1zm13 10v-1 1zm6 5v-1 1zm62 48 1 1v-1h-1zM49 24l1 1-1-1zm58 46v-1l1 1zm46 35a1 1 0 0 1 0 1zM26 6l1-1v1h-1zm13 10 1-1h-1a1 1 0 0 0 0 1zm38 29v1zm66 52 1 1v-1zM29 8V7h1a2 2 0 0 0 1 1h-1a3 3 0 0 0-1 0zm4 2 1 1h-1zm30 24h1a2 2 0 0 1 0-1h1l-1 1h-1zm92 72h1-1zM62 33h1v1zm5 4h2-2zm8 6h1a1 1 0 0 1-1 0zm61 48h1a1 1 0 0 1 0 1zm1 1a1 1 0 0 1 1 0zm3 2h1l1 1h-1zm10 7 1 1a1 1 0 0 1-1-1zM34 11h3v1l-2-1a2 2 0 0 0-1 0zm35 27h1v1zM27 5h1v1zm4 3V7l1 1zm18 14h1zm23 18h2a1 1 0 0 1-1 1zM45 18v1zm7 5h1l-1 1v-1zm5 5a1 1 0 0 1 1 0zm17 12c0 1 0 1 0 0zM41 14l1-1-1 1v1-1zm2 0v1l1 1-1 1-1-2zm-5-3h1a1 1 0 0 1 0 1h-1a3 3 0 0 0 0-1zm13 11v-1l1 1zm3 3 2-1v1h-2zm3 2 1-1v1zM31 6l1-1a2 2 0 0 0 0 1zm1 0a1 1 0 0 1 1 0v1zm26 21 1-1-1 1zm-6-6a1 1 0 0 1 1 0l-1 1zM35 7v1zm19 15v-1h1l-1 1zm7 6a1 1 0 0 1 1 0zM36 7h1l-1 1zm7 5h1v1zm2 1v1z" class="cls-1"/>
  <path fill="#ffed3b" d="M112 61v-1l1 1v-1 2h1-1 1v1l1 1v2-1 4l-1-1v1h1l-1 1v1h1l-1 1h2a3 3 0 0 1 2 2v3l-1 1h1l-1 1-1 1h1a3 3 0 0 0 0 2l-1-1v2l1-1 1 1h-1l1 1v1a7 7 0 0 1 1-1v1a3 3 0 0 0-1 0v1h-1v1h1-1 1c1 1 0 2-1 1v1l-1-1v-1 1a2 2 0 0 1-1 0l1 1h-1 1a2 2 0 0 1 1 0h1a2 2 0 0 0 0 1v-1 1h2l-1 1h2v-1l1 1h-1l2 1 1 1v-1l1 2a1 1 0 0 0 1 0 3 3 0 0 1 1 1h-2v2l-1 1v1h-2a3 3 0 0 1-1 0h1l-1-2 1 1h-1a7 7 0 0 0-1 0 4 4 0 0 0 0 1h-1l-1-1h-1a2 2 0 0 1-1 0h1v-1 1h1a9 9 0 0 1 0-1 1 1 0 0 0 1 1h1v-1l-1-1h1l-1-1h-1v1h-1l1-1v-2h-1 1-2 1l-1 1h2v1h-1v2l-1 1a7 7 0 0 1 0 1 2 2 0 0 0 0 1l-1-1 1-2-1 1-2 2v1l1-1a1 1 0 0 1 0-1h1a3 3 0 0 1 0 1h1v1h-1 1-1v1a1 1 0 0 1 1 1h-2l-1-1h1v-1h-1v1a1 1 0 0 1 1 0h-1l-1 1v1h1v-1 1l1-1v1h-1l1 1h-1 2v1l-1-1 1 1h1-1l1 1-1-1v1l1-1 1 1v1h-1v1-1h1v1h-2v1h-1l1 1a8 8 0 0 1-3-1 8 8 0 0 1-1-1v-2h1-1v-2 1a1 1 0 0 0 0-2v1h-1a1 1 0 0 1 0 1l-1 1 1 1v2a2 2 0 0 1-1 0 3 3 0 0 1-1-1 2 2 0 0 1 1-1 3 3 0 0 0 0-1l-2 1 1-1h-1l-1 1-1 1v-1a2 2 0 0 0-1 0v1h1v1h1a11 11 0 0 1 1 0 1 1 0 0 1 1 0l1 1v1l-1-1v1a1 1 0 0 1-2 0h-3l1 4v1a8 8 0 0 1 0 2 40 40 0 0 0-1 4 22 22 0 0 1 0 3 4 4 0 0 1-1 1 3 3 0 0 1-1-3 12 12 0 0 0 0-3 1 1 0 0 0 0-1v-4l-1-3v-3a3 3 0 0 0-1 0 2 2 0 0 0 0-1v1-1h-1v2l-2-1v-1a2 2 0 0 1 1 0 1 1 0 0 0 1-1h-1l1-1h2-1v-1h-1a1 1 0 0 0-1 0v1l-1 1v-4l-1-1v2s0 1 0 0h-1v-1 1l-1-1 1-1v-2a7 7 0 0 0 0 1 7 7 0 0 0 0 1l-1-1v2l-1 1-1-1a2 2 0 0 1 0 1h1a2 2 0 0 1-1 0l-1-1v-1l-1 1h1a1 1 0 0 1 1 1 1 1 0 0 1-1 0l-1 1a5 5 0 0 1 1 1l-1 1a1 1 0 0 1-1-1 1 1 0 0 1 1-1v-1h1l-1-1h-1v-1 1l-1-1 1-1v-1l-1 1a3 3 0 0 1 0-1h1l-1-1h1l-1-1v2h-1v-1a1 1 0 0 1-1 0 2 2 0 0 1 1-1v1l1-1h-1 1c1-1 1 0 1 1v-3a1 1 0 0 1-1 0l1-1h1v-1l-2 1v-1 1h-1v-2l-1 2-1-2h3v-1l-2 1h-1s-1 0 0 0a1 1 0 0 1 0-1v-2h-1v-1h1v-1l1 1h1-1v-2h-1l1-1h1v1l-1 1h2l-1-1v-1h-1l1-1h-2v-1l1-1h-1v-1h-1v-1h1-1l-1 1h-1v-2l1 1 2-2v2-1a3 3 0 0 1 1 1h1-1v-1a3 3 0 0 1 1 0v-1h1v-2h1v-2c1 0 0 0 0 0l1 1-1-1a1 1 0 0 0 0-1v-1a1 1 0 0 1 0 2l1-1h1v-1h1v-1l1-1h1a1 1 0 0 0-1 0l-1-1h2-1 2l-1 1 1-1a1 1 0 0 1 1-1h3l-1-1h1a1 1 0 0 1 1 0v-1a5 5 0 0 0 0 1 2 2 0 0 0 1 0 3 3 0 0 0 0-1l-1-1v1s-1 0 0 0a9 9 0 0 1-1-1v-1h1v1-1 1a4 4 0 0 0 1 1v-2 1-1h1-1v-2h1v1-1h-1a1 1 0 0 1 1 0v-1l1-1a7 7 0 0 1-1-1h1v1-1h1l1-1h3l1-1h1v1-1h1l1 1zM85 93l1-1h-1v1a3 3 0 0 1 0-1v1zm3-2v1l1-1h-2a2 2 0 0 0 1 0l-2 1a2 2 0 0 0 1 0 6 6 0 0 0 1-1zm2 10v-1l-1 1zm-5-18h1-2zm1 8 1 1v-1zm0-1v1-1zm3 9v-1h-1zm20 7v1-1zM87 87v1h1zm28 6h1-1zm-3 9h-1v1-1zm-19 0v-1 1zm-4-12v-1h-1zm37-21 1 1a2 2 0 0 1 1 1 3 3 0 0 1 0 1 2 2 0 0 1-1 1 3 3 0 0 1-2 1 1 1 0 0 1-1-1l-1-1a6 6 0 0 1 0-1 2 2 0 0 1 1-2h2z" class="cls-1"/>
  <path fill="#ffed3b" d="M92 110a1 1 0 0 0 1 0l1 1h1v1h1-1l-1 2a1 1 0 0 1-1 0 1 1 0 0 1-1 0l-1-1v-1a2 2 0 0 1 1-2c-1 0 0 0 0 0zm40-19a2 2 0 0 1-2 2 2 2 0 0 1-2-2 2 2 0 0 1 2-2 2 2 0 0 1 2 2zm-40 14h1l1-1v1l-1 1h3l-1 1v1l-1 1a1 1 0 0 0-2-1 3 3 0 0 1-1 0l2-2-1-1zM82 85h-2l1 2a6 6 0 0 1 0-1 1 1 0 0 1 1 0v1a5 5 0 0 0-1 0l-1 1v-1l-1 1v-1l1-1v-1l-1 1v-1a5 5 0 0 1 0-1v-1l1 1h-1 1a1 1 0 0 0 1 0l1 1zm-1 2h1v-1 1a1 1 0 0 0 1-2h1v1h1l1 1h-1v1-1a4 4 0 0 1-1 0v1a2 2 0 0 1 0-1 4 4 0 0 0-1 0v1a3 3 0 0 0 1 0v1h-1v-1h-2v-1zm18 32a1 1 0 0 1-1 1 1 1 0 0 1-1-1 1 1 0 0 1 1-2 1 1 0 0 1 1 2zm0-7a2 2 0 0 1-1 1 4 4 0 0 1 1 0 1 1 0 0 1 1 1l-2 1a1 1 0 0 1 0-1 2 2 0 0 0 0-1 1 1 0 0 1 1-2v1zm22-24h-1v-1l-1-1h1l2 1 1 1-2 1zm-27 37a1 1 0 0 1-2 1s-1 0 0 0a1 1 0 0 1 1-2 1 1 0 0 1 1 1zm0-9a1 1 0 0 1 0 2 1 1 0 0 1-1 0h-1a1 1 0 0 1 0-1 1 1 0 0 1 0-1h2zm33-16a5 5 0 0 0 0 1 1 1 0 0 1 1 2 1 1 0 0 1-2 0 1 1 0 0 1-1-1 1 1 0 0 1 1-1l1-1zM72 76a1 1 0 0 1 1-1 1 1 0 0 1 1 1v1a2 2 0 0 1-1 0 1 1 0 0 1-1 0v-1zm55 8v1a1 1 0 0 1-1 1 1 1 0 0 1-2-1 1 1 0 0 1 1-1 2 2 0 0 1 1 0 5 5 0 0 1 1 0zm-43 18a1 1 0 0 0 0-1v-1h1v1c1-1 1 0 1 1h-2zm50-9a1 1 0 0 1 1-1l1 1a1 1 0 0 1-1 1 1 1 0 0 1-1-1zM82 74v-1h1l1 1-1 1h-1l-1-1zm40 11h1a1 1 0 0 1 1 0 1 1 0 0 1 0 1 8 8 0 0 1-1 1zm-3-2h1a1 1 0 0 1 1 0 1 1 0 0 1 0 1 1 1 0 0 1-1 0 10 10 0 0 1-1-1zM82 95h1a7 7 0 0 0 1 1l-1 1a8 8 0 0 1-1-1v-1 1l-1-1h1zm-2-6v2a1 1 0 0 0-1 0v-1l1-1zm39 16v1a7 7 0 0 1-1 1h-1v-2h2zM85 78l1-1 1 1-1 1 1-1v1h-1 1l-1 1-1-1h-1 1v-1zm-3 22a1 1 0 0 1 0-1 4 4 0 0 1 0-1 6 6 0 0 1 1 1 1 1 0 0 1 0 1h-1zm0-17a2 2 0 0 0 1 0v2h-1a1 1 0 0 1 0-1h1zm56 21-1 1-1-1a3 3 0 0 1 0-1 4 4 0 0 1 1 0l1 1zm3-17-1 1h-1a1 1 0 0 1 1-1 1 1 0 0 1 1 0zm-18 16v1h-1v-1h-1 2zm9-7 1 1h-1c0 1 0 0 0 0v-1zm-10 46-1 1v-1h1zm21-31h-1l-1-1 2 1zm-52 5a2 2 0 0 1 0 1h-1a1 1 0 0 1-1-1 1 1 0 0 1 1 0h1zm3-46h1v-2 1a2 2 0 0 0 0-1v1h1a1 1 0 0 1 0 1h-2zM79 83v-1h1v1h-1zm-1 5v2h-1v-1h1v-1zm-1-5v1a3 3 0 0 1 1 0s1 0 0 0v1a3 3 0 0 0-1-1 6 6 0 0 1-1 0 2 2 0 0 1 1 0v-1zm9 15v-1l1 1h-1zm36 8h-1l-1-1 2 1c0 1 0 1 0 0zm3-18h-1v-1a1 1 0 0 1 1 0v1zm-10 17v-2 1l1 1h-1zm3-5h-1v1-2h1zm-35-5v-2a3 3 0 0 1 0-1l1 1-1 2zm49 7-1-1a2 2 0 0 1 1 0h1-1v1zm-11-3v2l-1-1a1 1 0 0 0 0-1h1zM78 77v-1 1zm39 26-2-1h2v1zM71 71a1 1 0 0 1 0 1l-1-1h1zm17 38 1-1a1 1 0 0 1 0 1h-1z" class="cls-1"/>
  <path d="M82 95v-1h-1l1-1v1h1v1h-1zm-9-10v1a1 1 0 0 1 0 1v-1l-1-1zm12 14v1l-1-1v-1a3 3 0 0 1 1 0v1zm53 1a1 1 0 0 1 0 1l-1-1h1zm-19-11a2 2 0 0 0 0-1h1v2l-1-1a1 1 0 0 1 0 1v-1zm16-18v-1a1 1 0 0 1 1 0l-1 1zm-55 7h-1v-1l1 1c0 1 0 0 0 0zm11-8v-1 1c-1 0 0 1 0 0zm-6 8h-2 1a1 1 0 0 1 1 0zm-9 28a3 3 0 0 1-1-1l1-1v1a2 2 0 0 1 0 1zm34 12a1 1 0 0 1 0 1l-1-1h1zm-27-18 1-1v1a3 3 0 0 1-1 0zm43-1v2zM85 69a2 2 0 0 1 1 1l-1 1a1 1 0 0 1 0-1 2 2 0 0 1 0-1zm35 33v-1h1v1h-1zM80 89v-1h2l-1 1h-1zm40 2v-1c1-1 0 0 0 0h1zm-35 5v1h-1zM69 71a2 2 0 0 1 0 1 2 2 0 0 1-1 0l1-1zm50 3 1 1h-1a5 5 0 0 1 0-1zm7 26-1 1a1 1 0 0 1-1-1h2zM79 83a3 3 0 0 1-1 0v-1h1v1zm49 13v1h-1l1-1zm-3 8 1 1h-1v-1zm-46 2v1h-1a4 4 0 0 1 1-1zm57-24-1 1 1-1zm-54 2h-1v-1h1v1zm1 7v1c-1 0 0 0 0 0l-1-1h1zm8 24a8 8 0 0 1-1 0v-1a3 3 0 0 1 1 0v1zM76 97a7 7 0 0 1 1 0 1 1 0 0 1 1 0h-2zm45 4a2 2 0 0 0 0-1h1l-1 1zm-10 6-1 1v-1h1zM82 91l1-1v-1 1l-1 1zm30-30-1-1a5 5 0 0 1 0-1v1h1zm9 16v-1l1-1v2zm10 3v1a6 6 0 0 1-1 0zm-6 11 1 1h-1zM78 81h-1 1zm1-9h-1a4 4 0 0 0 1 0v-1a1 1 0 0 1 0 1zm0 21-1 1a2 2 0 0 1 0-1 1 1 0 0 1 1 0zm-2 2 1 1-1-1zm4 20h1a2 2 0 0 1-1 0zm-3 19v-1h1l-1 1zm-3-74-1-1h1v1zm-2 23a1 1 0 0 0-1 0l-1-1h2zm46 27h-1a2 2 0 0 1 1-1v1zM78 80l-1-1h1l1 1h-1zm0 7a3 3 0 0 1-1 0v-1zm39-20v-1l-1 1a1 1 0 0 1 0-1l1-1v2zm-44 35h-1 1zm52 2h1v1l-1-1zM87 72v1a1 1 0 0 1-1 0 9 9 0 0 1 1-1zm46-13v-1h1l-1 1zM81 75h-2 1a5 5 0 0 1 1 0zm20-13 1 1-1-1zm18 51v1a1 1 0 0 1-1 0l1-1zm-19-54v1a4 4 0 0 1-1 0zM85 99l1-1v1h-1zm37 42h-1v-1l1 1zM92 70h1zm-5 47h-1a2 2 0 0 1 1 0zm32-17-1-1h1zm-44 8h-1l1-1v1zm5-36h1a2 2 0 0 0 0 1h-1v-1zm18-5v1h-1l1-1zm-14 56h1l-1 1zm11-69h-1v-1l1 1zM81 90v-1h1l-1 1z" class="cls-1"/>
  <path d="M81 94v1h-1v-1h1zm36 9-1 1 1-1zm-26 9-1 1-1-1h2zm25-7h1v1l-1-1zm4-17h-1a8 8 0 0 1 1 0v1zm-48-7a1 1 0 0 1-1 1 1 1 0 0 1 0-1 2 2 0 0 1 1 0zm22 29h1-1zM74 79a5 5 0 0 1 1 0h-1zm2-21v-1 1zm5 61a7 7 0 0 1 1 0v1l-1-1zm21 18v1-1zm21-36a1 1 0 0 1 0-1zm-39-1a5 5 0 0 1-1 1 1 1 0 0 1 0-1h1zm-8-26 1 1zm22-8h-1l1-1zM81 80h1zm-3 1h2l-1 1zm9 30v1a2 2 0 0 1-1 0zm7-3 1 1h-1zm-9-29-1 1zm-8 3h-1l1-1v1zm12 32a5 5 0 0 1 1 1h-1a2 2 0 0 1 0-1zm-14-10v-1a7 7 0 0 1 1 0zm-3-13v-1h1zm13 17h1v1h-1zm-2-33v1h-1zm-1 43h1-1zm-7-47v-1l1 1a4 4 0 0 1-1 0zm10 38h-1 1zm-3-1a5 5 0 0 1 0 1l-1-1zm59-5v1a1 1 0 0 1-1-1s1 0 1 0zM85 75l-1 1 1-1zm-5 3 1-1v1h-1zm0 32-1 1v-1h1zm39-1-1-1c-1-1 0 0 0 0h1v1zM77 87l-1 1v-1zm23-22a3 3 0 0 1-1 1v-1h1zm9-10 1 1h-1zm-24 55a5 5 0 0 1 1 0v1l-1-1zm-6-5zm3 15h1-1zm20-59 1-1zm-2 2s-1 0 0 0a3 3 0 0 1 0-1zm30 40zm-58-8a2 2 0 0 1-1 0 2 2 0 0 1 1 0zm22-25h-1l1-1v1zm-4 39v-1 1zm-13-6 1 1h-1zm63-2v1l-1-1a2 2 0 0 1 1 0zm-33 6v1-1zm-22-4v1-1zm32-34v1-1h-1zm-49 33v-1a1 1 0 0 1 0 1zm13 7v1-1zm49-12v-1h1v1a4 4 0 0 1-1 0zm-8-7 1-1a1 1 0 0 1-1 1zM88 78l-1-1 1 1zm-11 34h1-1zm47-10v-1h1zm-10-39 1 1-1-1zM78 87zm41-4h-1a6 6 0 0 1 1 0zm-35 37v-1zm42-9h1v1zM77 70l-1-1 1 1zm44 18v1h-1v-1zm-8 33v1a1 1 0 0 1-1 0 1 1 0 0 0 1-1zM83 59v1-1zm8 46-1 1v-1zM76 84h-1zm14 25h1v1h-1v-1zm0-37h-2 1zm31 10zM75 93l1 1-1-1zm9-1-1-1h1zm3 14a2 2 0 0 1-1 0 4 4 0 0 1 1 0zm47-13v-1 1zM88 71h-1a3 3 0 0 0 1 0zm-2 46-1 1v-1zm40-20 1 1h-1v-1zm-47-1v1-1zm-10 14v1h-1v-1zm9-11a5 5 0 0 1 0-1v1zm37-28 1 1zm4 32a2 2 0 0 1 0-1h1v1a1 1 0 0 1-1 0zm-26 18zM74 95v-1 1zm45 8v1-1zM87 75a2 2 0 0 1 0 1v-1zm53 31a3 3 0 0 1 1 0h-1zm-18 29 1-1v1zM89 75l-1-1 1 1zM77 95v-1a7 7 0 0 1 0 1zm41 2 1-1a2 2 0 0 1-1 1z" class="cls-1"/>
</svg>
