<svg xmlns="http://www.w3.org/2000/svg" data-name="Capa 1" viewBox="0 0 129 37">
  <path fill="#fff" d="M116 0h-1Zm7 2Zm-12 1h-1Zm3 0v1-1Zm-5 0Zm-1 0h-1Zm4 1a1 1 0 0 0-1 0v1-1h1Zm2 0h-1 1Zm3 0v1-1Zm-6 0h-1Zm-2 0h-1 1Zm4 0v1-1Zm9 1v1-1Zm-1 0v1-1Zm-4 0v1-1Zm2 1-1 1V5a2 2 0 0 0 1 1Zm-5-1v1-1Zm-1 0-1 1V5h1ZM37 0v1-1Zm79 6Zm-4-1v1h-1V5Zm-4 1v1h-1V6h1Zm8 0v1h-1l-2 1V7a2 2 0 0 0 1 0h-1V6a3 3 0 0 0 1 0 2 2 0 0 0 1 1 2 2 0 0 1 0-1Zm-3 1-1 1-1-1a2 2 0 0 1 0 1V7l1-1 1 1Zm-10-1h-1 1Zm7 0-1 1V6Zm12 2h-1l1-1Zm5 11h-1l-1 1v1l1 1h-2a2 2 0 0 1 0 1h1-1l-1 1h1a2 2 0 0 0 1 1h-1l-1-1v2h1l-3 1h3l1-1a2 2 0 0 0 0 1h-1v1l1 1-1-1-1 1h-1l-1-1a6 6 0 0 1 0 2l-1-1h-1l-1 1a2 2 0 0 0 1 2v-1h-1 2l-1 1h1v1a3 3 0 0 0-2 0h-1v-1h2-2v-1 3l-1-1 1-1h-1v1l-1 1v-1h-2l-1 1v-1 1a4 4 0 0 1-2 0l-1-1v1l-1-1h-1l1 1h-1v-1l-1 1a3 3 0 0 0-1-1h-1l1 1a2 2 0 0 1 1 0 2 2 0 0 0 0 1h-1l-1-1v1l-1-2-1 1h-1l1 1-1-2h-1 1v-1h-2a2 2 0 0 1-1 0h1l-1 1v-1h-1 1a2 2 0 0 1-1 0v1a2 2 0 0 0-1 0h1l-1-1a2 2 0 0 0 1-1h1a2 2 0 0 1-1 0l-1 1-1-1h-2 1l1 1h-1a3 3 0 0 0-1 0l1 1a2 2 0 0 0-1 0 2 2 0 0 0-1-1 2 2 0 0 0 1-1 2 2 0 0 1-1 0v1h-1a1 1 0 0 0 0-1h-1v-1h-1a2 2 0 0 1-2 0 3 3 0 0 1-1 0h-1v-1l1 1v-1h-3a3 3 0 0 1 0-1h-1l1 2v1-1l-1 1a3 3 0 0 0-1-2v1h-1v-2l-1 1v-1h-1a2 2 0 0 1 1 1h-1l-2-1-1-1a1 1 0 0 0-1 1v-1h-2a4 4 0 0 1 0-1h-1v1h1-6a2 2 0 0 1 0 1l1-1a2 2 0 0 0 0 1h-2 1l-1-1 1-1 1 1v-1a2 2 0 0 1-1 0l-1 1-2-2v1h1-1l1 1h-1l-1-1h-1v1a3 3 0 0 0-1 0h1v-1h-1v1a3 3 0 0 0-1 0v-2h-1l1 2-1-1-1-1-1 1h-1 1l-1-1-1 1h-1l1-1a4 4 0 0 1-1 0 2 2 0 0 0-1 0v1h-1v-1a27 27 0 0 0-3 0h1v-1h-1l-2 1h-1l-1-1 1 1v1l-2-2a4 4 0 0 1-1 1v-1h-2v1h-1a6 6 0 0 1 0-1h-1v1h-1a2 2 0 0 0-1-1 2 2 0 0 1 0 2v-1a2 2 0 0 1-1 1h1l-1-1-1 1a1 1 0 0 0 0-1 2 2 0 0 1 0 1l-1-1a1 1 0 0 1-1 0 3 3 0 0 0 0 1h-2v-1h1-1l-2 1a2 2 0 0 1 0-1 2 2 0 0 1-1 0l1 1a9 9 0 0 0-2 0 4 4 0 0 0-2 1v-1a5 5 0 0 1-1 1l-1-1a1 1 0 0 0 1-1l-1 1-1-1-1 2a5 5 0 0 0-2-1v-1l-1 2h-1v-1h-1a1 1 0 0 0 1 1l-1-1h-2a2 2 0 0 1-1 0h-1v-1l-1 1v-1H9l-1-1v1l-1-1H6h1-1a3 3 0 0 0-1 0l1-1H5v-1H4a2 2 0 0 0-1 1 1 1 0 0 0-1-1v-1l1-1-1-1h1-2a2 2 0 0 1-1-1l1-1H0l2 1-1-2v-1H0l1-1-1-2h2-2v-1h2v-1h1a2 2 0 0 1-1 0H1l1-1h1v1a2 2 0 0 1 1 0H3V9h1V8h1a7 7 0 0 0-1-1h1a8 8 0 0 1 1 0h1L6 6V5a2 2 0 0 0 1 1V5v1l1 1 1-1a7 7 0 0 0 2 0H9l1-1a2 2 0 0 0 1 1V5v1l2-1h1a2 2 0 0 0 0 1h-1v1h1l2-1h-2V5h2v1l-1 1h2V6h-1 1l2 1-1-1a2 2 0 0 0 1-1v2a1 1 0 0 1 1 0l-1-1h1l1 1V6h2a2 2 0 0 1 1 1h2-1V6l2 1 1-1c1 0 0 0 0 0v1h2v1l1 2V8l1 1h-1 3-1V8h1v2h1l-1-1h2v1a5 5 0 0 1 2-1 1 1 0 0 1 1 1l1-1 1 1v1-1l1 1h1v-1h-1l1-1v1-1h1v1l2 1h1-1l2-2v1a2 2 0 0 1 1 1V9l2 2v-1a2 2 0 0 1-1-1 2 2 0 0 0 0-1l1 1v1h1V9h1a9 9 0 0 0-1 1 2 2 0 0 1 0 1h1a2 2 0 0 1 0-1v1-1h1l1-1a2 2 0 0 1-2 2v1h1v-1h1l1-1 1 1h1v-1a2 2 0 0 0 1 0h1a2 2 0 0 0 0 1v-1h1v1h1-1v-1h1l1 1h2-1l1-1h-1V9c2 1 2 2 2 3l2-2-1-1h1a7 7 0 0 1 1 2v-1h2a2 2 0 0 1 1 0l1 1h1v-1l1 1v-1h-1l-1-1h1l1 1a1 1 0 0 0 0-1h2-1v1l1-1 1 1h1v1-1l2 1a2 2 0 0 1 1-1h-2l1-1h1l-1 1a2 2 0 0 1 2 0h1v1l1-1h2l1-1 1 1h1l1 1-1-1V9l1 1v1h1a6 6 0 0 0 0-1 6 6 0 0 1 3 1V9a2 2 0 0 0 2 0 5 5 0 0 1 2 0 2 2 0 0 1 1 0v1h1l-1-1V8h1-1V7h1v1h2v1h-2 1a2 2 0 0 1 1 0l-1-1V7a4 4 0 0 0 2 0l-1 1h1v1a2 2 0 0 1 1 1V8h1-1V7h2l-1 2 2-1v1l2-1 1 1 1-1v1l1-1v1l1-1v1h5l-1-1v1l-1-1 2-1 1 2 1 3h1-1l1 1-1 2a3 3 0 0 0 1 0l2-1-1 1v1a2 2 0 0 0-1 0v1h1l1-1a3 3 0 0 1 1 2l-1 1v-1l-1 1h1-1v1h1a3 3 0 0 1 3-1ZM116 7v2h-1V8l1-1Zm-14-1v1h-1V6Zm13 2v1l-1-1h1Zm-7-1-1 1V7h1Zm17 1v1h-1V8Zm-16 0h-1V7l1 1Zm8 0-1 1V8Zm5 3h-1v-1h-1l1-1h-1 2-1Zm-17-3h-1 1Zm-6 0V7v1Zm27 1v1-1Zm-3 0v1-1ZM88 7h-1 1Zm37 3Zm-15-1ZM99 8v1-1Zm-1 0h-1ZM72 6v1-1Zm47 4Zm-12-1h-1a2 2 0 0 1-1 0v1l2-1ZM93 8v1h-1V8a2 2 0 0 0 1 0ZM83 7v1h-1V7ZM18 3Zm105 7v1-1Zm-6 0h-1 1Zm-4 0 1 1-1-1Zm-2 0h-1 1ZM94 9a2 2 0 0 0-1 0 2 2 0 0 1 1-1Zm31 2h-1Zm-8-1v1Zm-2 0v1-1ZM89 8v1-1ZM24 4h-1 1Zm102 8-1-1 1 1Zm-23-3a2 2 0 0 1 0 1h1a2 2 0 0 1-1-1Zm-4 1-1-1v2a2 2 0 0 1 1-1h-1 1ZM85 8Zm-3 0h-1 1Zm-1 0-1 1V8h1Zm39 3h-1a2 2 0 0 1 1 0Zm-9-1v1Zm-2 0Zm-14 0h-1V9l1 1ZM76 8h-1ZM12 3v1-1Zm111 8v1a2 2 0 0 0-1 0l1-1Zm-5 0Zm-13-1v1ZM84 9h-1ZM50 6v1h-1V6Zm47 4a2 2 0 0 1-1 0 2 2 0 0 1 1 1Zm23 2h-1a2 2 0 0 1 1 0Zm-10-1ZM85 9v1h-1ZM15 4v1-1Zm68 5v1-1ZM69 8v1-1Zm-7 0h-1 1c1 0 0 0 0 0Zm-2 0Zm-6-1v1-1ZM29 6l-1-1h1v1ZM16 5ZM9 4v1-1Zm85 7a4 4 0 0 1-1-1h-1a4 4 0 0 1 2 1Zm-16-1V9v1Zm45 3v-1 1Zm-3-1v1Zm-24-1a2 2 0 0 1-1 0h1ZM73 9v1l-1-1ZM58 8a1 1 0 0 1-1 1V8ZM33 6v1-1Zm-8 0h-1 1Zm-5-1v1h-1l1-1Zm69 6a3 3 0 0 1-1-1 2 2 0 0 1 0 1h1ZM70 9l-1 1V9ZM55 8ZM31 6v1h-1V6Zm96 7v1-1Zm-7 0Zm-21-2v1Zm-9 0h-1 1Zm-2-1-1 1h1ZM64 9a2 2 0 0 0 0 1h-1a2 2 0 0 0 0-1ZM49 8Zm-5 0h-1V7h1v1ZM4 5Zm117 8v1Zm-24-2h-1v1h1Zm-4 0h-1a2 2 0 0 1 0 1h1Zm-20-1Zm-7-1v1a2 2 0 0 0 0-1Zm-4 0h-1ZM52 9V8v1Zm72 5a4 4 0 0 1-2 0h1v-1h1v1Zm-38-3Zm-2 0h-1 1ZM57 9a2 2 0 0 0-1 1V9a2 2 0 0 1 1 0Zm-9-1v1-1ZM32 7v1l-1-1h1Zm-9 0V6a2 2 0 0 1-1 1l1 1h1V7a1 1 0 0 1-1 0Zm102 7Zm-4-1h-1v1l1-1Zm-38-2h-1a2 2 0 0 1 0 1Zm-6-1-1 1a3 3 0 0 1 1 0ZM58 9ZM31 7v1h-1l1-1Zm64 5Zm-8-1h-1a1 1 0 0 1 0 1h1Zm-2 0v1Zm-17-1v1a2 2 0 0 1 1 0 3 3 0 0 1-1-1Zm-12 0-1-1 1 1Zm-2 0h-1V9l1 1Zm-7-1h-1v1-1ZM27 7l-1 1h1V7v1h1l-1-1Zm57 4v1Zm-11 0h-1a2 2 0 0 1 1 0Zm-15-1a2 2 0 0 0-1 0V9ZM42 8v1-1ZM32 8Zm93 6v1-1Zm-49-3Zm-5 0a2 2 0 0 0-1 0 2 2 0 0 1 1 1v-1Zm10 1h1-1Zm-8-1h-1 1ZM22 7h-1l1 1Zm33 3Zm-8 0V9ZM29 8h-1v1a3 3 0 0 1 1 0Zm-3 0h-1 1Zm-2 0h-1 1Zm101 7v1h-1v-1Zm-41-3h-1v1h1Zm-11 0ZM8 7Zm58 4h-1v1a2 2 0 0 1 1 0Zm-6 0h-1 1ZM23 8v1Zm103 8h-1l1 1h-1l-1-1h1Zm-4 0Zm-43-3Zm-22-2v1Zm0 0-1 1h1ZM33 9h-1v1h1Zm-4 0Zm-1 0ZM7 8H6h1Zm67 5h-1 1Zm-19-2v1Zm-3 0h-1 1Zm-9-1v1-1Zm-6 0-1 1h1a1 1 0 0 1 0-1Zm90 6v1h-1l1 1h-1v-2Zm-81-5h-1a2 2 0 0 1 1 0Zm-7-1v1Zm-3 0h-1v1h1ZM3 8v1a2 2 0 0 0-1-1h1Zm46 3v1h1l-1-1Zm-1 0v1Zm17 2h-1 1Zm-8-1h-1 1Zm-14-1h-1l1 1Zm-3 0Zm83 6v1-1Zm-84-6h-1 1Zm89 6v1h-1v-1Zm-6 0Zm2 0v1Zm-88-5ZM2 9v1-1Zm120 9Zm1 2v1a2 2 0 0 1 1 0l-1-1Zm-2 0Zm3 0v1-1Zm-2 0v1ZM2 12Zm125 9-1 1v-1Zm-3 0v1Zm-1 0v1ZM2 13H1v1l1-1Zm126 9v1h-1v-1a2 2 0 0 0 1 0Zm1 1Zm-3 0h-1 1a2 2 0 0 1-1 0v2h-1v-2l2-1a2 2 0 0 0 0 1Zm-3 0ZM2 15Zm125 10h-1v-1 1h-1v-1a2 2 0 0 0 1 0 2 2 0 0 0 1 1Zm-5-1ZM1 16v1H0v-1Zm121 9Zm4 1h-1Zm2 0v1h-1v-1ZM1 18h1a1 1 0 0 0-1 0Zm123 10h-2 1Zm-3 0h-1 1Zm-1 0Zm-76-5-1 1h1v-1Zm84 6h-1Zm-87-6ZM4 21H3h1Zm52 3a2 2 0 0 1-1 1h2l-1-1Zm-10 0h1a2 2 0 0 1-1 0Zm75 5v1Zm-42-2Zm-14-1h-1 1Zm-5-1v1Zm-23-1ZM4 21v1Zm71 5h-1v1h1Zm-1 0-1 1h1Zm-5 0h-1 1Zm-2 0v1Zm-15-1h-1 1Zm-6-1h-1l1 1v-1Zm74 6v1l-1-1h1Zm-50-4v1Zm-35-2Zm7 1-1 1h-1v-1h2Zm50 3v1Zm-8 0Zm-2 0h-1 1Zm-5-1h-1v1l1-1Zm-20-1Zm-6-1v1a2 2 0 0 0-1 0v-1Zm-11 0Zm77 5h-1 1Zm-70-5v1h-1v-1l1 1v-1ZM7 23Zm45 3h-1Zm35 3Zm-29-2h-1Zm-2 0h-1v-1l1 1Zm-6-1v1h-1v-1Zm72 5v1h-1l1-1Zm-6 0Zm-2 0Zm-20-2h-1v1h1Zm-2 0a2 2 0 0 1-1 1h1a2 2 0 0 1 0-1Zm-19-1h-1Zm-2 0h-1 1Zm-31-2h-1Zm-2-1v2-1Zm88 7h-1Zm-38-3Zm-37-2h-1Zm-3-1v1-1Zm-21-1h-1v1a2 2 0 0 1 1-1ZM5 23v1H4l1-1Zm84 7v-1 1Zm-12-1h-1Zm-52-4h-1v1h1Zm89 6v1h1l-1-1Zm-30-2v1h-1l1-1Zm-4 0v1h-1l1-1Zm-47-3h-1 1Zm-11-1h-1 1Zm92 7h-1l-1 1h1l1-1Zm-15-1h-1 1Zm30 2Zm-18-1Zm-91-7v1Zm-5 0h-1 1Zm-6 1-2-1h1Zm112 7h-1Zm-31-3v1h-1v-1Zm-11 0h-1Zm-6-1v1-1Zm-56-4h-1v1h1Zm84 6h-1v1h1Zm-53-3ZM7 25Zm115 8v1-1Zm-12-1v1h1l-1-1Zm-34-2Zm-60-4h-1 1Zm103 7v1a2 2 0 0 0-1 0v-1a3 3 0 0 0 1 0Zm-3 0h-1 1Zm-27-2-1 1a1 1 0 0 1 1 0h-1v-1h1ZM6 25v1H5v-1Zm84 6v1h-1v-1Zm-5 0-1 1 1-1Zm-7 0h-1 1Zm-56-4Zm0 0h-1Zm-3-1v1h-1v-1Zm-9 0Zm105 8h-2l1-1a2 2 0 0 0 1 1Zm-32-3v1-1Zm38 3Zm-3 0Zm-16-1h-1 1Zm-21-2v1h-1l1-1Zm25 2v1l-1-1Zm-6 0h-1 1Zm-5 0h-1Zm-15-1h-1 1Zm30 2v1l-1-1h1Zm-1 1h-1v-1l-1 1v-1h1Zm4 0h-1v-1a2 2 0 0 0 1 1Zm-12-1h-1Zm-3-1-1 1v-1Zm-3 0v1-1Zm24 2v1a2 2 0 0 0-1-1Zm-1 0a1 1 0 0 1 0 1l-1-1Zm-23-1h-1Zm5 0v1-1Zm16 2Zm-17-1Zm-7-1v1-1Zm23 2Zm-6 0Zm-1 0v1-1Z"/>
</svg>
