<svg xmlns="http://www.w3.org/2000/svg" data-name="Capa 1" viewBox="0 0 143 75">
  <path fill="#fff" d="M15 43Zm-7-1Zm12-2h1-1Zm-4 0Zm5 0h1Zm2 0v-1 1Zm-4-1a1 1 0 0 0 0-1h1v1h-1Zm-3 0h1a2 2 0 0 0-1 0Zm-3 0v-1h1v1Zm7 0h1Zm2 0v-1h1l-1 1Zm-5 0v-1h1v1Zm-9-1h1Zm2 0Zm3 0h1-1Zm-1 0 1-2v2a3 3 0 0 0-1 0Zm4 0h1Zm2 0v-1 1Zm76 0Zm-79-1Zm4 0Zm3-1h2v1h-1v-1Zm-7 1v-1h1l1-1a2 2 0 0 0 0 1h1a2 2 0 0 0-1 1 2 2 0 0 0-1-1 2 2 0 0 1-1 1Zm3-1v-1h1v1-1l1-1v2l-1 1-1-1Zm10 0 1 1h-1v-1Zm-7 0h1-1ZM9 35v1ZM3 25h1l1-1v-1l-1-1h2a1 1 0 0 1 0-1H5v-1l1 1 1-1H6a2 2 0 0 0-1-1h1v-1H5l3-1v-1H7v1H6l-2 1a2 2 0 0 0 1-1H4h1v-1l-1-1h1v1l1-1h1l1 1a6 6 0 0 1 0-2v-1l1 1h1l1-1a2 2 0 0 0-1-1v1H9v-1h1l-1-1a3 3 0 0 0 2 0h1-2v1h2v1-3h1v1h-1 1l-1 1h1v-1l1-1v1l1-1h2l-1-1h1a4 4 0 0 1 2 0v1l1-1 1 1h1l-1-1 1 1V9a3 3 0 0 0 2 1V9l1 1-1-1a3 3 0 0 1-1 0 2 2 0 0 0 0-1h1l1 1V8l1 2 1-1h1l-1-1 1 1h1l-1 1h1v1h1a2 2 0 0 1 1-1h-1l1-1v1h1-1a2 2 0 0 1 1 0V9a2 2 0 0 0 1 0h-1l1 1a2 2 0 0 0-1 1h-1a2 2 0 0 1 1 0l1-1 2 1h1l-1-1v1l-1-1h1a2 2 0 0 0 1 0l-1-1a1 1 0 0 0 1 0 2 2 0 0 0 0 1 2 2 0 0 0 0 1 2 2 0 0 1 1 0v-1a1 1 0 0 0 1 1h1v1l1-1a2 2 0 0 1 2 0v1a3 3 0 0 1 1-1v1-1h1v1h-1 1l1 1v-1h1a3 3 0 0 1 1 1l-1-2v-1 1h1a3 3 0 0 0 1 1h1v1l1-1v1h1a2 2 0 0 1-1-1v1-1h1l2 1h4v1a4 4 0 0 1 1 0h-1l1-1v1l1-1h1v1l1-1h2a2 2 0 0 1 0-1l-1 1a2 2 0 0 0 0-1h2-1l1 1-1 1a2 2 0 0 1 0 1l1-2h1l1 2v-2h2a3 3 0 0 0 1 0h-1v1l1-1v1-1a3 3 0 0 0 1 0v1h1l-1-1h2v1l1-1h1v1l1-1h1v1l-1 1a4 4 0 0 1 2-1 2 2 0 0 0 0 1v-1h1a30 30 0 0 0 3 0h-1v1h2l1-1h2-1v-1l2 2a4 4 0 0 1 1-1h1l-1 1h1v-1l1 1 1-1h1v-1l1 1a2 2 0 0 1 0-1 2 2 0 0 0 1 1 3 3 0 0 1 0-1 2 2 0 0 1 1-1h-1l1 1h1a2 2 0 0 1 0-1l1 1v1h1a1 1 0 0 1 1-1 2 2 0 0 0-1-1h2v1-1h-1v1h1l2-1a2 2 0 0 1 0 1 2 2 0 0 1 1-1h-1v-1a8 8 0 0 0 2 1v-1l1 1h-1v-1a4 4 0 0 0 2 0 4 4 0 0 1 1 0h1a1 1 0 0 0-1 1h2l1-1a5 5 0 0 0 2 1v-1 1h1v-2h1v1h1a1 1 0 0 0-1-1V9l2 2v-1l1 1a2 2 0 0 1 1-1 1 1 0 0 1 0 1h1v1-1h1v1h1v-1l2 1v1h2v-1h-1a3 3 0 0 0 1 0v1l1 1h-1 2a2 2 0 0 0 0-1 1 1 0 0 0 1 1v3h2a2 2 0 0 1 0 1v1l-1-1 1 2-1 1h1v1l1 1-2 1h2v1h-2v1h-1a2 2 0 0 1 1 0h1l-1 1h-1v-1a2 2 0 0 1-1 0v1h1-1v1h-1a7 7 0 0 0 1 1 8 8 0 0 1-2 1v-1h-1l1 1a2 2 0 0 1 1 0v1h-2v-1h-1l-1 1a7 7 0 0 0-1-1h-1 2v1h-1a2 2 0 0 0-1 0v-1l-2 2a2 2 0 0 0 0-1v-1l-2 1h1v1l-2-1 1-1a2 2 0 0 1-1 0h-1 1-1v1h1-1l-1-1v1a2 2 0 0 0 0 1h-1l1-2h-1v1l-1-1h-1l1 1h-2v1a2 2 0 0 1-2-2v1h-1v-1 1h-2v1h-1v-1a2 2 0 0 1 0-1v1l-1-1a2 2 0 0 0 0 1h-1v-1l-1-2v1h-1 1-2v1h-1v-2 1h-2a5 5 0 0 1-2 0h-2l-1-1v-1 2-1h-1v1h-1v1h-1v-1l-2-1h-1 1l-2 2v-1a2 2 0 0 1-1-1v2l-2-2v1a2 2 0 0 1 1 1h1a2 2 0 0 0-1 1l-1-1v-1h-1v1a9 9 0 0 0 0-1 2 2 0 0 1 0-1h-1a2 2 0 0 1 0 1h1-1l-1 1h-1a2 2 0 0 1 2-1v-1h-1v1l-1-1-1 1h-1a2 2 0 0 1 0-1h-1v2a2 2 0 0 0-1 0h-1a2 2 0 0 0 1-1h-1v1h-1v-2l-1 1h1v1h-1v-1h-3 1v2l-2-2-1 1v1a7 7 0 0 1-2-1h-2a2 2 0 0 1-1 1l-1-2-1 1v-1 1h-1v1l1-1v1h1-2a1 1 0 0 0 0 1h-1l-1-1h1v-1l-1 1h-1l-1-1v1l-2-1a2 2 0 0 1-1 0h2v1h-1l-1 1v-1h1a2 2 0 0 1-2 0h-1v-1l-1 1h-2v1h-1l-1-1h-2l1 1-1-1v-1a6 6 0 0 0-1 2 6 6 0 0 1-3-1v2a2 2 0 0 0-1 0 4 4 0 0 1-3 0h-1v2h-1v-1h-2 2v-1h-1a2 2 0 0 1-1 0q0 2 2 2a4 4 0 0 0-2 1v-1l-1-1h1-1a2 2 0 0 1 0-1h-1l1 1-1 1h1-1l-1 1v-1l1-1-2 1h-1l1-1h-1l-1 1h-1l-1-1v1l-1-1v1l-1-1v1l-1-1h-4v1h1l-2 1v-1l-2-4v1H8l1-1H8l1-2a3 3 0 0 0-1-1l-2 2 1-2v-1a3 3 0 0 0 0 1v-1H6l-1-2v1h1v-2h1-2a3 3 0 0 1-2 1Zm12 11v-1 1Zm14 0Zm-14-1h1v1l-1-1Zm7 1 1-1v1ZM6 35Zm16 0Zm-8 0Zm-6-3 1 1v-1l1 1H9v1h1v1H9v-1Zm18 3v-1 1Zm5 0v-1l1 1h-1ZM4 35v-1 1Zm3-1h1v1a2 2 0 0 0-1-1Zm35 0h1v1l-1-1ZM5 34Zm15 0Zm11 0h1Zm1 0h1Zm26 0h1Zm-47 0v-1Zm13 0a2 2 0 0 1 1-1v-1l-1 1Zm14-1h1v1a2 2 0 0 0-1-1Zm10 1v-1l1 1Zm64 0h1ZM7 33h1Zm7 0Zm4 0a2 2 0 0 1-1-1h-1l2 1Zm1 0h1-1Zm18 0h1a2 2 0 0 1-1 0ZM5 33h1Zm8 0Zm2 0h1v-1l-1 1Zm26 0Zm66 0v1-1ZM4 32h1v1l-1-1Zm23 1h1a2 2 0 0 1 0-1h-1a2 2 0 0 1 0 1Zm5-1 1 1-1-1v-1a2 2 0 0 1 0 1Zm13 1h1Zm3 0h1-1Zm2 0v-1l1 1h-1Zm-39 0h1v-1h-1Zm8 0h1v-1h-1Zm2 0h1v-1h-1Zm14-1h2v1h-1l-1-1Zm20 1v-1 1Zm63 0h1ZM7 32a2 2 0 0 0 1 0H7Zm5 0Zm13 0Zm21 1v-1h1v1Zm35 0v-1 1Zm-48-1a2 2 0 0 1 1 0 2 2 0 0 1 0-1h-1Zm-22 0v-1a2 2 0 0 1 0 1Zm9 0h1-1Zm25 0 1-1v1Zm71 1v-1Zm-69-1v-1h1v1Zm14 0h1Zm7 0h1-1Zm2 0 1-1v1h-1Zm6 0h1-1Zm25 0v-1l1 1h-1Zm13 0h1Zm7 0h1Zm-85-1a4 4 0 0 1 2 1v-1a4 4 0 0 1-2 0Zm16 0v1-1ZM7 31h1-1Zm3 0h1-1Zm24 0h1-1Zm23 0h1Zm16 1v-1h1Zm24 0v-1h1v1Zm8-1h1v1l-1-1Zm5 1 1-1v1Zm-69-1a3 3 0 0 1 1 0 2 2 0 0 1 0-1l-1 1Zm20 0v-1 1Zm14 0h1Zm25 0ZM3 31v-1h1v1Zm7 0Zm21 0Zm9 0h1-1Zm2 0 1-1h-1Zm24 0a2 2 0 0 0 1-1 2 2 0 0 0 0 1Zm15 0Zm5-1 1 1v-1h1l-1 1h-1 1l-1-1Zm40 1ZM9 31v-1Zm24 0h1v-1h-1Zm5 0a2 2 0 0 1 0-1Zm19 0v-1 1Zm7 0 1-1a2 2 0 0 0-1 1Zm4 0h1Zm10-1h1v1l-1-1ZM6 30a4 4 0 0 1 2-1v1H6Zm38 0Zm3 1v-1Zm26-1a2 2 0 0 0 1 0 2 2 0 0 1 0 1Zm9 1v-1h1v1Zm16 0v-1l1 1a2 2 0 0 0-1 0Zm9 0v-1l1 1a2 2 0 0 1 0-1h-1a1 1 0 0 1 0 1ZM5 30Zm4 0h1-1Zm38 0h1a2 2 0 0 1 0-1Zm6 0h1a3 3 0 0 1-1 0Zm19 0Zm27 1v-1h1v1Zm-64-1Zm8 0h1a1 1 0 0 1 0-1l-1 1Zm2 0v-1Zm17 0 1-1a2 2 0 0 1-1 0 3 3 0 0 1 0 1Zm12 0h1-1Zm2 0h1-1Zm8 0v-1h1v1h-1Zm19 0h1-1Zm-57 0v-1Zm12 0a2 2 0 0 1 1 0v-1a2 2 0 0 1-1 1Zm15 0a2 2 0 0 0 0-1v1Zm15 0h1Zm10 0h1-1ZM5 29Zm49 1v-1Zm5 0v-1a2 2 0 0 0 1 1v-1a2 2 0 0 1-1-1v1Zm-10-1Zm8 0h1-1Zm52 1v-1Zm-34-1Zm8 0h1Zm18 0h1a2 2 0 0 1-1 0Zm4 0Zm2 0ZM5 29v-1h1v1Zm41 0h1-1Zm11 0Zm65 0h1-1Zm-58 0h1v-1a2 2 0 0 1-1 1Zm7 0v-1Zm36 0h1v-1h-1ZM4 28h1l-1-1h1l1 1H5Zm4 0Zm43 0Zm22 0Zm1 0Zm24 0Zm3 0h1-1Zm1 0Zm22 1v-1h-1Zm-67-1Zm18 0h1-1Zm3 0h1-1Zm9 0Zm6 0h1v-1a1 1 0 0 1-1 1ZM3 27h1l-1-1h1v1Zm81 1h1v-1a2 2 0 0 1-1 1Zm7 0Zm3 0h1-1Zm33 0 1-1a2 2 0 0 0 0 1h-1Zm-46 0v-1h-1l1 1Zm1 0h1l-1-1Zm-17-1h1-1Zm8 0h1-1Zm14 1h1l-1-1Zm3 0v-1ZM7 27v-1 1Zm84 0h1-1ZM2 27v-1h1v1Zm6 0v-1Zm-2-1Zm88 1v-1Zm34 0v-1l1 1ZM8 26v-1Zm-1-2v-1a2 2 0 0 1-1 0l1 1Zm1 0h1v-1Zm-2-1H5h1Zm2 0Zm120 1ZM3 22h1Zm3 0Zm0 0h1-1Zm122 1 1-1-1 1ZM2 22v-1l1 1a3 3 0 0 0-1 0Zm-2 0v-1 1Zm3-1h1a2 2 0 0 1 1-1H4l1-1 1 1-2 2a2 2 0 0 0-1-1Zm4 0Zm121 0ZM3 19l1 1v-1a2 2 0 0 0 0 1H3a3 3 0 0 0 0-1Zm4 1h1v-1H7Zm122 0v-1h1v1ZM7 19h1-1Zm-3-1Zm-2 0v-1 1Zm126 0h1-1ZM6 16h1-1Zm3 0Zm0 0v-1Zm76 0 1-1-1-1v2ZM1 15h1Zm87 0h1-1Zm38 1v-1h-1Zm-53-1a2 2 0 0 1 1 0h-1v-1 1Zm10 0a2 2 0 0 1 0-1 2 2 0 0 1 0 1ZM8 14h1-1Zm42 0Zm14 1 1-1h-1Zm5-1a2 2 0 0 1 0 1h1v-1h-1Zm23 1v-1Zm33 0h1v-1h-1Zm-71-1h1Zm1 0h1Zm5 0h1-1Zm2 0Zm16 0Zm6 0h-1 1ZM9 13l1 1H9v-1Zm50 1Zm35 0h1-1Zm-6-1h1l-1 1v-1Zm-51 0Zm8 0h1-1Zm2 0h1-1Zm5 0h1l-1 1Zm20 1v-1h1v1Zm6 0v-1h2v1Zm11 0v-1h1v1Zm-76-1Zm69 0h1-1Zm40 1v-1Zm-45-1h1Zm-35 0v-1Zm30 0v-1 1Zm1-1h1v1l-1-1Zm7 1v-1 1ZM7 12h1-1Zm6 0Zm2 0Zm20 0h1-1Zm2 0a2 2 0 0 1 1-1h-1a2 2 0 0 1 0 2Zm19 1v-1h1v1Zm2 0v-1h1l-1 1Zm32 0v-1 1Zm1 0v-1a2 2 0 0 0 0 1ZM3 12h1Zm38 0Zm37 1v-1h1v1Zm3 0v-1Zm22 0v-1a2 2 0 0 1 0 1Zm21 0 1-1-1 1Zm-84-1Zm12 0h1Zm52 0h1v-1h-1v1Zm-89 0v-1h-1a2 2 0 0 1-1 0l2 1Zm30 0a1 1 0 0 1 0-1h1l-1 1Zm4 0v-1h1l-1 1Zm47 0 1-1v1h-1Zm11 0h1-1Zm-92-1h1v-1l-1 1Zm15 0h1-1ZM0 11Zm18 0Zm91 1v-1Zm6 0h-1Zm5-2 2 1v1h-1ZM8 11l1-1v1Zm31 0v-1h1v1Zm11 0h1Zm6 0Zm57 1v-1Zm-85-1h1-1Zm53 0Zm41 0ZM7 10Zm12 1v-1h-1l1 1Zm34 0v-1 1Zm60 0h1-1ZM10 10a2 2 0 0 0 1 0 2 2 0 0 0-1 0Zm3 0Zm27 0a1 1 0 0 1 0-1h1v1h-1Zm84 1v-1 1Zm-85-1h1Zm5 0 1-1v1h-1Zm7 0h1-1Zm56 1v-1 1Zm0 0 1-1v1Zm3 0v-1h1v1Zm9-1v1-1ZM14 10l1-1h1l-2 1Zm32 0ZM7 10V9h1v1Zm4 0V9v1Zm16 0V9Zm21 0V9h1l-1 1ZM23 9h1Zm6 0h1-1Zm5 0h1Zm15 0h1-1ZM19 8v1-1Zm1 0h1v1-1l1 1h-2Zm-4 0h1l-1 1a2 2 0 0 0 0-1Zm12 1V8h1v1Zm3 0 1-1-1 1Zm3 0V8v1ZM10 8V7a2 2 0 0 0 0 1Zm1 0Zm23 0h1Zm-6 0h1ZM13 8V7v1Zm16-1h1Zm7 0h1ZM13 7h1Zm6 0V6h1v1Zm2 0V6v1Z" class="cls-1"/>
  <path fill="#fff" d="m119 6 1 1V6v1h1-1l1 1c0-1 0 0 0 0l1 1-1 1h1v1a2 2 0 0 0 0 1 2 2 0 0 1-1 0h1v1h-1v2h1-1l1 1a2 2 0 0 1 2 1 8 8 0 0 0 0 2 1 1 0 0 0 0 1l-1 1h1-1v2a3 3 0 0 0 0 1h-1 1v1-1l1 1h-1l1 1a5 5 0 0 1 1 0v1h-1l1-1a2 2 0 0 0-1 1 2 2 0 0 0 0 1h-1 1c1 1 0 1-1 1v1-1h-1v-1l1 1v-1h-1v1h1a1 1 0 0 1-1 0v1a1 1 0 0 1 1 0h1v1h1v1h1v-1h1v1h1v1l2 1a3 3 0 0 1 1 1h-1v1h-1v2h-2s0 1 0 0a3 3 0 0 1-1 0h1l-1-1 1 1h-1a6 6 0 0 0 0-1l-1 1-1-1v1a5 5 0 0 1-1 0 2 2 0 0 1 0-1v1h1v-1a1 1 0 0 0 1 0l1-1h-1v-1h-1v1h-1l1-1v-1h-1 1v-1a3 3 0 0 0-1 0v1h1v1h-1a1 1 0 0 1 0 1v1l-1 1a2 2 0 0 0 0 1v-2 1l-2 1v1l1-1h-1a1 1 0 0 1 1 0h2v1h-1l-1 1a1 1 0 0 1 1 1h-1l-1-1h1a2 2 0 0 0 0-1h-1v1l-1 1 1 1v-1h1v1h-1 1v1h1v1-1l-1 1h1l1-1v2h-1v1-1h1v1h-1l-1 1a5 5 0 0 1-1 0 6 6 0 0 1-2-1l1-2h-1v-1h1v-1 1a1 1 0 0 0-1-1h1-1a1 1 0 0 1 0 1v1h-1l1 1v1a1 1 0 0 1-1 0 3 3 0 0 1-1 0v-1a2 2 0 0 1 1 0 3 3 0 0 0 0-1l-1 1v-1h-1v1h-1c-1 0-1 0 0 0a1 1 0 0 0-1 0v1h2a8 8 0 0 1 1 0 1 1 0 0 1 0 1l1 1a1 1 0 0 1-2 1l-1-1h-2l1 4a7 7 0 0 1 0 2v3a21 21 0 0 1-1 3 4 4 0 0 1 0 1 2 2 0 0 1-1-3 10 10 0 0 0 0-2v-7l-1-2v-1h-1 1-1v-1 1l-1-1v1l1 1h-2v-2a1 1 0 0 0 1-1v-1l1 1v-1h1-1a1 1 0 0 0-1 0v1h-1v-3l-1-1v2s0 1 0 0v-1 1h-1v-2l1-1h-1v1c0 1 0 0 0 0l-1 1h1l-1 1h-1l-1-1v-1 1a7 7 0 0 1 1 0v1a1 1 0 0 1-1 0 5 5 0 0 1 0 2h-1a1 1 0 0 1 0-1v-1h1l-1-1h-1v-1s1 0 0 0v-1h1l-1 1a3 3 0 0 1 0-1v-1h1l-1-1v2a6 6 0 0 0-1-1h-1a2 2 0 0 1 1-1v1l1-1h-1 1v1l1-1-1-1h1l-1-1v1a1 1 0 0 1 0-1v-1l1 1v-1h-1v1h-1v-2 2-1l-1-1h2-3 1v-1h-1l1-1v-1h-1l1-1h-1 1a1 1 0 0 0 0 1l1-1-1-1h1v1h1l-1-1v-1 1-1c-1 0-1 0 0 0l-1-1h-1 1v-2h-1v-1h1-2v1h-1l1-2v1l1-2 1 2v-1a3 3 0 0 1 0 1h1v-1s0-1 0 0l1-1v-1h-1 1v-1c1 0 1 0 0 0v-1h1-1a1 1 0 0 0 0-1v-1a1 1 0 0 1 1 2l1-1v-1h1v-1h1a3 3 0 0 0-1 0v-1h2l-1-1h1v1h-1 1a1 1 0 0 1 1-1h2v-1a1 1 0 0 1 1 0 2 2 0 0 0 1 0 3 3 0 0 0 0-1h-1s0 1 0 0a7 7 0 0 1-1-1h1v-1 1a3 3 0 0 0 1 1v-2c0 1 0 0 0 0V9h1v1-1h-1a1 1 0 0 1 1 0V8l1-1h-1a5 5 0 0 1 0-1v1h1l1-1h1l1-1h3s0 1 0 0l1 1ZM99 33v-1h-1l1 1h-1a2 2 0 0 1 0-1v1Zm1-1h1l-1-1a2 2 0 0 0 0 1l-1 1a2 2 0 0 0 1 0 5 5 0 0 0 0-1Zm2 8v-1l-1 1Zm-4-15h1-1Zm1 7h1v-1Zm0-2v1c1 0 0 0 0 0Zm2 8a2 2 0 0 0 0-1Zm16 6v1-1Zm-17-16v1h1Zm22 5Zm-3 8Zm-14 0-1-1Zm-4-10v-1Zm29-18 1 1a2 2 0 0 1 1 1 2 2 0 0 1 0 1 2 2 0 0 1-1 1 2 2 0 0 1-2 0 1 1 0 0 1-1 0v-1a6 6 0 0 1 0-1 2 2 0 0 1 1-1l1-1Z" class="cls-1"/>
  <path fill="#fff" d="M104 47a1 1 0 0 0 1 0v1h1v1h1-1v1a1 1 0 0 0-1 1 1 1 0 0 0-1 0 1 1 0 0 1-1 0 1 1 0 0 0 0-1v-1a2 2 0 0 1 0-1l1-1Zm31-16a2 2 0 0 1-2 2 2 2 0 0 1-1-1 2 2 0 0 1 1-2 2 2 0 0 1 2 1Zm-32 12h2v1h-1 2-1 2l-1 1v1l-1 1a1 1 0 0 0-1-1 2 2 0 0 1-1 0 1 1 0 0 1 0-1l1-1s-1 0 0 0l-1-1Zm-7-17v1h-1v1a6 6 0 0 1 0-1h1v1a4 4 0 0 0-1 0l-1 1v-1h1l-1 1v-2h1-1v-1 2l-1-1v-1h1a2 2 0 0 1-1 0 4 4 0 0 1 0-1h1v1a1 1 0 0 0 1 0h1Z" class="cls-1"/>
  <path fill="#fff" d="M95 28h1v-1 1a1 1 0 0 0 1-1c0-1 0-1 0 0a1 1 0 0 0 1 0h1v1h-1v1-1 1h-1a2 2 0 0 1 0-1v2c-1 1 0 0 0 0v-1h-2v-1Zm14 27a1 1 0 0 1-1 1l-1-1a1 1 0 0 1 1-2 1 1 0 0 1 1 2Zm1-6a3 3 0 0 1-1 0 2 2 0 0 1 0 1 1 1 0 0 1 1 1l-1 1a1 1 0 0 1-1-2 1 1 0 0 1 1-1h1Zm16-20v-1h-1v-1h1c1-1 0 0 0 0l1 1 1 1-1 1Zm-20 31a1 1 0 0 1-2 1h-1v-1a1 1 0 0 1 1-1 1 1 0 0 1 2 1Zm-1-8a2 2 0 0 1 1 1 1 1 0 0 1 0 1 1 1 0 0 1-1 0h-1a1 1 0 0 1-1-1 1 1 0 0 1 1-1h1Zm26-13a4 4 0 0 0 0 1 1 1 0 0 1 1 1 1 1 0 0 1-1 1 1 1 0 0 1-1-1 1 1 0 0 1 0-1 2 2 0 0 1 1 0ZM88 19a1 1 0 0 1 1-1 1 1 0 0 1 1 1v1a2 2 0 0 1-1 0h-1v-1Zm43 7a1 1 0 0 1-1 1 1 1 0 0 1 0-2 5 5 0 0 1 1 1ZM98 41a1 1 0 0 0 0-1v-1 1h1v1h-1Zm39-7a1 1 0 0 1 1-1v1a1 1 0 0 1-1 0ZM96 18v-1l1-1v2c0 1 0 0 0 0h-1a5 5 0 0 1-1 0v-1Z" class="cls-1"/>
  <path fill="#fff" d="M127 27v-1h1a1 1 0 0 1 1 0 1 1 0 0 1-1 1 6 6 0 0 1 0 1Zm-2-2a1 1 0 0 1 2 0 1 1 0 0 1-1 1 1 1 0 0 1-1 0 10 10 0 0 1 0-1ZM96 35h1a6 6 0 0 0 0 1v1a3 3 0 0 1-1-1v-1h-1 1Zm-2-5 1 1a1 1 0 0 1-1 1l-1-1h1-1l1-1Zm31 13v1a5 5 0 0 1-1 1h-1l1-2 1 1v-1ZM99 21v-1 2l1-1-1 1v-1l-1 1h-1l1-1s1 0 0 0Zm-3 18a1 1 0 0 1 0-1v-1a6 6 0 0 1 1 1 1 1 0 0 1 0 1h-1Zm0-15a2 2 0 0 0 1 1v1h-1v1a2 2 0 0 0 0-1 1 1 0 0 1 0-1Zm44 19h-1l-1-1a4 4 0 0 1 0-1 3 3 0 0 1 1 1l1 1Zm2-15-1 1a1 1 0 0 1 0-1 1 1 0 0 1 1 0Zm-14 14h-2l1-1s0 1 0 0l1 1Zm7-7 1 1-1 1v-1c0-1 0 0 0 0v-1Zm-8 40-1-1h1v1Zm16-27a1 1 0 0 1-1-1l1 1Zm-40 4a2 2 0 0 1 0 1h-1a1 1 0 0 1 0-1h1Zm2-38h1v-1h1a1 1 0 0 1 0 1h-1c0-1 0 0 0 0a1 1 0 0 0-1 0ZM94 25v-1 1Zm-1 4v2l-1-1v-1h1Zm-1-4h1v1a1 1 0 0 0-1 0 6 6 0 0 1-1 0v-1a2 2 0 0 1 1 0 2 2 0 0 1 0 1v-1Zm7 13v-1a1 1 0 0 0 0-1l1 1-1 1Zm28 6h-1v-1l1 1c0 1 0 1 0 0Zm2-15v-1a1 1 0 0 1 1 0l-1 1Zm-8 14 1-1 1 1h-2Zm3-4s-1 0 0 0l-1 1v-2h1v1c0 1 0 0 0 0Zm-27-4v-2a3 3 0 0 1 0-1v3Zm38 6-1-1a2 2 0 0 1 1 0v1Zm-9-3v2-1a1 1 0 0 0-1-1h1ZM93 20v-1c1 0 0 0 0 0v1Zm30 21h-1v-1l1 1v-1 1ZM87 15h1a1 1 0 0 1-1 0Zm14 31s0-1 0 0a1 1 0 0 1 1 0h-1Z" class="cls-1"/>
  <path fill="#fff" d="M96 35v-1h-1 1c1 0 0 0 0 0h1v1h-1Zm-7-9v1a1 1 0 0 1 0 1l-1-1Zm10 12-1 1v-2 1c0 1 0 0 0 0Zm40 1h1a1 1 0 0 1 0 1l-1-1Zm-14-9a1 1 0 0 0 0-1v1h1-1a1 1 0 0 1-1 0h1Zm12-15v-1a3 3 0 0 1 1 0l-1 1Zm-43 6-1-1h1a3 3 0 0 1 0 1Zm9-7v-1 1s0 1 0 0Zm-4 7h-2a1 1 0 0 1 2 0Zm-8 23a3 3 0 0 1 0-1s1 0 1 0a2 2 0 0 1-1 1Zm26 10h1a1 1 0 0 1 0 1l-1-1c0-1 0 0 0 0ZM97 39v-1a5 5 0 0 1 1 0v1a1 1 0 0 1-1 0Zm33 0 1-1-1 1v1ZM98 13a2 2 0 0 1 1 1 1 1 0 0 1-1 0 2 2 0 0 1 0-1Zm28 28v-1 1ZM95 30l-1-1h2l-1 1h-1Z" class="cls-1"/>
  <path fill="#fff" d="M126 31h-1l1-1c0-1 0 0 0 0a2 2 0 0 0 0 1Zm-28 5 1 1h-2ZM86 15a1 1 0 0 1 0 1h-1l1-1Zm39 2v1a4 4 0 0 1 0-1Zm5 22-1 1a1 1 0 0 1 0-1s1 0 1 0ZM94 25a2 2 0 0 1-1 0v-1h1l-1 1h1Zm38 11v1l-1-1h1Zm-2 7v1a1 1 0 0 1-1-1h1Zm-36 1h-1a3 3 0 0 1 0 1 4 4 0 0 1 0-1Zm44-20s0 1 0 0c-1 0 0 0 0 0Zm-42 1-1 1v-1h1Zm1 7-1 1v-1l1-1-1 1Zm6 19a6 6 0 0 1-1 0 2 2 0 0 1 1 0ZM91 36a6 6 0 0 1 1 0v1a6 6 0 0 1-1 0Zm35 4a2 2 0 0 0 1-1l-1 1Zm-8 5h1-2 1ZM96 31v-1h1l-1 1Zm23-25a4 4 0 0 1 0-1v1Zm8 14-1-1h1v1Zm7 3s0 1 0 0Zm-5 9h1v1Zm-37-9h1a2 2 0 0 1 0 1Zm1-7a2 2 0 0 0 0-1h1l-1 1Zm0 17v1a2 2 0 0 1 0-1Zm-1 2 1 1-1-1Zm3 17 1-1v1a2 2 0 0 1-1 0Zm-2 15ZM90 5V4l1 1h-1Zm-1 19a1 1 0 0 0-1 0h1Zm36 24-1-1a1 1 0 0 1 1 0v1ZM93 22h-1a1 1 0 0 1 0-1h1v1Zm0 6a2 2 0 0 1-1 0Zm30-17v-1 1ZM89 41h-1v-1l1 1Zm41 1v1-1Zm-30-26a4 4 0 0 1-1 1v-1a8 8 0 0 1 1 0Zm36-11V4v1ZM95 18h-1a4 4 0 0 1 1 0Zm16-11v1-1Zm14 43v1a1 1 0 0 1-1 0l1-1ZM110 5v1a4 4 0 0 1-1-1ZM99 38c0 1 0 0 0 0Zm28 35h-1c-1 0 0 0 0 0h1Zm-23-59h1Zm-4 39v1l-1-1a2 2 0 0 1 1 0Zm25-14-1-1 1 1Zm-35 7v-1 1c0 1 0 0 0 0Zm5-30v1-1Zm13-4h1a2 2 0 0 1-1 0ZM97 59l1-1-1 1Zm9-59-1 1V0h1ZM95 30h1-1Zm0 4v1a8 8 0 0 1-1 0 1 1 0 0 1 0-1h1Zm29 8h-1v-1Zm-21 7h-1 1Zm20-6v1a1 1 0 0 1-1-1h1Z" class="cls-1"/>
  <path fill="#fff" d="M126 29h-1a7 7 0 0 1 1 0v1Zm-38-6a2 2 0 0 1 0 1h-1a1 1 0 0 1 0-1 1 1 0 0 1 1 0Zm18 24c0 1 0 1 0 0ZM90 22a4 4 0 0 1 1 0h-1Zm2-18h-1V3l1 1Zm3 51a6 6 0 0 1 1 0v1l-1-1Zm17 15v1l-1-1Zm16-30v-1Zm-31-1a3 3 0 0 1 0 1 1 1 0 0 1 0-1Zm-6-21h1Zm17-7-1-1h1ZM95 23v-1h1Zm-2 0h1l-1 1Zm7 25v1a1 1 0 0 1-1 0Zm6-2v1l-1-1Zm-8-24v1l-1-1Zm-6 2h-1l1-1v1Zm10 27a6 6 0 0 1 0 1h-1a2 2 0 0 1 0-1Zm-11-9h-1a6 6 0 0 1 1 0Zm-3-11h1Zm11 15Zm-2-28v1h-1Zm-1 36a4 4 0 0 1 1 0h-1Zm-5-39v-1 1Zm7 31v1-1Zm-2 0v1l-1-1Zm46-4a1 1 0 0 1-1 0h1ZM98 18v1-1Zm-4 3v-1h1v1h-1Zm0 26v1-1Zm31-1h-1 1ZM92 29h-1v-1Zm18-19a2 2 0 0 1-1 0h1Zm7-8h1-1ZM99 47a6 6 0 0 1 0 1l-1-1Zm-5-4h-1 1Zm2 13h1-1Zm16-50s0-1 0 0Zm-2 2a2 2 0 0 1 0-1Zm24 33v1h-1l1-1Zm-46-6a1 1 0 0 1-1 0h1Zm17-21v-1 1Zm-3 33v-1 1Zm-10-5h1-1Zm49-2Zm-26 5 1 1h-1l1-1Zm-17-3Zm25-29v1-1ZM85 41v-1a3 3 0 0 1 0 1Zm10 6v1-1Zm39-10a4 4 0 0 1 0-1 3 3 0 0 1 0 1Zm-7-7h1a1 1 0 0 1-1 0v1Zm-27-10s1 0 0 0Zm-8 29Zm37-9Zm-8-32v1-1ZM93 28v1h-1v-1a8 8 0 0 1 1 0Zm32-3h-1s0-1 0 0h1ZM98 56h-1v-1h1Zm32-7 1-1v1ZM92 14h-1l1-1v1Zm34 15 1 1h-1v-1Zm-6 28ZM97 5v1a3 3 0 0 1-1-1 5 5 0 0 1 1 0Zm6 38-1 1v-1ZM91 25v1Zm11 22h1-1Zm0-32h-1 1Zm24 9h1-1Zm-35 9v1-1Zm6-1Zm3 12a1 1 0 0 1-1 0 3 3 0 0 1 1 0Zm37-11-1-1h1v1Zm-37-18Zm-1 39h-1l1-1Zm32-17h-1 1Zm-37-2v1h-1v-1Zm-9 13h1-1Zm8-10a4 4 0 0 1 0-1v1Zm29-23h1Zm3 26Zm-20 16-1-1h1v1ZM90 35h-1l1-1v1Zm35 6v1-1Zm-25-23a2 2 0 0 1 0 1 1 1 0 0 1 0-1Zm41 26a2 2 0 0 1 1 0h-1Zm-14 24h1Zm-26-50h1Zm-9 17a5 5 0 0 1 0-1 6 6 0 0 1 0 1Zm32 2v-1h1a1 1 0 0 1-1 1Z" class="cls-1"/>
</svg>
