<svg xmlns="http://www.w3.org/2000/svg" data-name="Capa 1" viewBox="0 0 136 122">
  <path fill="#fff" d="M0 15v1-1zm1-5zm0 11zm0-8v1-1zm0-8h1v1H1zm0 11h1a2 2 0 0 0 0 1l-1-1zm1-7zm0 6v1zM12 0a1 1 0 0 0 1 0v1h1v1a2 2 0 0 1 1-1v1a2 2 0 0 0 0-1v1l1-1v1h1V1l1 1h-1a2 2 0 0 1 1 1 1 1 0 0 1 1-1v2-1h1v1h1a4 4 0 0 0 0 1v1l1 1a2 2 0 0 1 0-1h-1 1l-1-1h1v2h1a6 6 0 0 0-1 1h1V7v1a2 2 0 0 0 0 1 2 2 0 0 0 0 1 2 2 0 0 1-1-1 6 6 0 0 1 0 2h1a4 4 0 0 1 0 2l1-1v2l-1-1v1-1l-1 1h1v1a8 8 0 0 1-2 0 2 2 0 0 1 1 1l1-1v2l-1 1h1v-1 1h1a3 3 0 0 1-1 1v1h1v2a4 4 0 0 0 1 1h-1 1l-1 1v-1 2l1-1v1h-1a1 1 0 0 0 1 0v2l1-1-1 1h1a2 2 0 0 1 0 1 2 2 0 0 1-1-1v1h-1l1 1a1 1 0 0 0 0 1 2 2 0 0 1 0-1h1v1h1v1h-1v1a7 7 0 0 0 1 2l1 1v1h-1v-1h-1l1 1a2 2 0 0 0 0 1v-1h1l-1 1h1l-1 2a3 3 0 0 1 1-1v1a1 1 0 0 0-1 1h1v-1l1 1-1 1 1-1v2-1h1v1a2 2 0 0 0-1 0v1h1v3a12 12 0 0 0 1 0v1h-1l1 1a1 1 0 0 1-1 0 3 3 0 0 1 1 1l-1 1h1v1h1l-1 1h1l-1 1h1l-1 1a2 2 0 0 1 1 0v1h1-1l2 1v1l-1 1 1-1a8 8 0 0 0 0 2v1h1v1h-1v1h1a1 1 0 0 1-1 0v-1h1l1 1-1 1h1l-1 1v-2h-1l1 1h-1l2 1v1l1-1v1h-2 1v1h-1 1l1-1 1 1a1 1 0 0 0-2 0v1h2a2 2 0 0 1-1 1 2 2 0 0 1 1 1h-1l1 2v-2l1 1h-1v1h1v-2h1v2-1h1a2 2 0 0 1 0-1v-1h1a2 2 0 0 1 1 0 5 5 0 0 0-1 0v-1h1l-2-1v1-1 2-1a2 2 0 0 0 0 1h-1v-1l2-2v-1h-1 2l-1-1h1l-1-1 1-1v1-1a2 2 0 0 1 1 0v-1h-1v-2h1a2 2 0 0 1 0 1v-2a2 2 0 0 1-1 0v-1a4 4 0 0 0 2 0v-1h-1v1a3 3 0 0 0-1-2h1v1h1v-1h-1a2 2 0 0 1 0-1 1 1 0 0 1 0-1 2 2 0 0 1 0-1 5 5 0 0 1 1-1v-1l-1-1 1-1a2 2 0 0 1 1 0v-1a2 2 0 0 1-1-1 2 2 0 0 1-1 1l1-2v1l1-1h-1v-1h1a1 1 0 0 1 0-1 1 1 0 0 0-1 0v-1 1h1v-1h1l-1-1h-1v-1 1h2v-1h-1a4 4 0 0 0 0-2v1-2h1v-1a6 6 0 0 1 0-1 3 3 0 0 1 0-1h-1a2 2 0 0 0 1-1 2 2 0 0 0-1 0v-1h1a3 3 0 0 1 0-1v1-1h1v-1a2 2 0 0 1 0-1l-1-1v-1a1 1 0 0 0 0 1h1l1-1a7 7 0 0 1-1-2v-1a2 2 0 0 0 0-1l-1-1h1a2 2 0 0 0 1 0 4 4 0 0 0-1-2v-1a1 1 0 0 1 0-1h-2l2-1-1-1a1 1 0 0 1 1 0v-1h-1 1v-1a2 2 0 0 1 0-1l1-1h-1v-1h1v1-2h1-1l2-2h-1V6l1 1 1-1h-1a1 1 0 0 0 0-1h3l-1-1a3 3 0 0 0 1 1V4h1a3 3 0 0 1-2 0 2 2 0 0 1 2-1v1a2 2 0 0 1 1-1v1a2 2 0 0 0 0-1l1-1v1a1 1 0 0 1 1-1h-1a3 3 0 0 0 1-1v1h1l1 1h1V2h-1l1-1 1 2h1V2a1 1 0 0 0 0 1 6 6 0 0 1 2 1 1 1 0 0 1 1-1v2h-1v1h1l1-1v1a1 1 0 0 1 0 1h1l-1-1h1v1l1 1a1 1 0 0 0 0 1h1v2-1a2 2 0 0 0 1 1l-1 1h1-1a1 1 0 0 1 0 1h1l1-1-1-1a2 2 0 0 0 1-1v1a2 2 0 0 1 0 1l2 1v-1 1h-1l-1 1-1-1a2 2 0 0 0 0 1h2l-1 1h1l-1 2h1v-1 1h-2v2h1v-1a2 2 0 0 0 0 1v2h-1 1l1-1h-1 1v1l-1-1v2a2 2 0 0 0-1 0v1-1h-1v1l1 1a1 1 0 0 1 0-1v2-1h-1a3 3 0 0 1 0 2v1a1 1 0 0 1 1-1v1h-2l1 1v1l-2-2v2-1h1v1h-1 1l-1 1h1v1h-1l1 1h-2v1h1l1 1h-1v1l-1 1v1h1l-1-1h1v1h-1a2 2 0 0 1-1 0v1l1 1h-1l-1 1h1v1l1 1h-1a1 1 0 0 1-1 0h2v1a1 1 0 0 0-1 0v1h-1 1l-1-1h-1v1h1v1h1v1h-2l1 1a1 1 0 0 0 1 1 6 6 0 0 1-1 0 3 3 0 0 1-1 1h1a1 1 0 0 0-1 1l-1-1h1v1h-1v1-1h-1v1h1v2h1-1a2 2 0 0 0 0-1h1v1l1-1h-1 1a2 2 0 0 0 1 0l-2 1 1 1h-1v-1 1a2 2 0 0 0 0 1h-1v-1a1 1 0 0 0 1 0h-1a1 1 0 0 1-1 0l1 1h-1v1-1 2h1l-1 2h-1 1-1l1 1a1 1 0 0 0 0-1v1a2 2 0 0 0 0 1l-2-1h1l-1 1 1 1v1a2 2 0 0 0-1 1 6 6 0 0 1-1 0l1-1h-1v2h1v1-1a2 2 0 0 1-1 1v1l-1-1a3 3 0 0 1 1 1v2-1a8 8 0 0 1-2 1l1 1a1 1 0 0 0-1 1 2 2 0 0 0 1 0l-1 1v1l-1 1v1h1v1h1v-1h-1 2a2 2 0 0 1-2 2l-1 1h1l-1 1h1v-1 2-1a2 2 0 0 1 1 1h-1l-1 1v-2c-2 1-2 2-2 4a2 2 0 0 1 1 0v2l1-1-1 1 1 1h1v1a1 1 0 0 0-1-1l-1 1v-1a1 1 0 0 1-1 1v1l-1-1h-1v1l1 1h-1l1 1a3 3 0 0 1-2-1v1h1a2 2 0 0 0 1 0 1 1 0 0 0 1 0v1h-1 1a1 1 0 0 1 0-1h1v1l-1 2v-2l-1 1v-1h-1 1a2 2 0 0 1-1 0v1l1 1h-1v-1h-1a1 1 0 0 1 0 1h1-1 1l1 1v1l1-1a1 1 0 0 0 0 1l1-1-1-1a3 3 0 0 0 2 0 5 5 0 0 1-1 2 7 7 0 0 1-1 0 3 3 0 0 0-1 1h-1v-1h1l-1-1a2 2 0 0 1 0 1v1h1v1h-1l1 1h-1v3a2 2 0 0 0 1 0h1l-1 1v1l1 1h-1l-1 1h-1 1v3h-1 1l1-1 1 1h-1a1 1 0 0 1 1 1h-2a11 11 0 0 1-1 2h-1l-1-1v1h1-1a9 9 0 0 1 1 2v-1h1a10 10 0 0 0 0 2h-1v1l-1-1h-1v1a2 2 0 0 1 1 0h-1v1l-1-2h-1a2 2 0 0 1 0 2l1-1 1 1 1 1v1h-1l-1-2h-1l-3 2h1v1h-1 1v1h-1a1 1 0 0 1-1 0v-1h1a2 2 0 0 1-1-1h-1l-1 1v-1l-1 1v1h1-1v-1 1h-1v-2h1v-1 1l-1-1v1a2 2 0 0 0-1 0v-1l-1 1h1-1v1-1h-1v1a1 1 0 0 0-1-1 1 1 0 0 1-1 0 2 2 0 0 0 1-1 2 2 0 0 1-2 0l1 1h-1v-1a2 2 0 0 0 0-1h1a4 4 0 0 1 0-1h-1v1-1 2h-1v-1l-1-1v-1h1-1a2 2 0 0 0 1-1h-1v1l-1-3-1-1v1-1l-1 1v-1h-1a1 1 0 0 0-1 0 2 2 0 0 0 1-1 1 1 0 0 0 1 0h-1v-1 1-1h1-1l1-1 1 1v-1a4 4 0 0 1-2 0 1 1 0 0 1 0-1v-1h1l-1-1h-1v1l1-1v1h-1v-1l-1-1a2 2 0 0 0 1-1l-1-1 1 1 1-1h-3v-1l1 1a2 2 0 0 0 0-1h1l-1-1h1v-1h1a2 2 0 0 1-1-2h1a2 2 0 0 0-1-2v-1a1 1 0 0 1 0-1h1v-2h-1v1a2 2 0 0 0 0-1l1-1h-1v-1a11 11 0 0 0 0-2l-1 1h-1l2-2-2-1a2 2 0 0 0 1-1v1-1l1-1-1 1h-1l1-1h-1l-1-1h1l-1-1a3 3 0 0 1 1 0h-1a1 1 0 0 0-1-1l1-1 1-1a2 2 0 0 1-1-1h-1a1 1 0 0 1 1-1 1 1 0 0 1-1 0l-1-2v1l-1-1a2 2 0 0 0 1 0l1-1-1-1v-1l-1-1h1v-1a2 2 0 0 1-1 0 2 2 0 0 0 0-1l-1-1h2a1 1 0 0 1-2-2h1a1 1 0 0 0 0 1 1 1 0 0 1 0-1l-1-1v1h1v-1a3 3 0 0 1-1-1 2 2 0 0 0 0-1 1 1 0 0 1-1-1 1 1 0 0 1 0 1v-1a3 3 0 0 0 0-1v1h1l-1-1h1-2l2-1a2 2 0 0 0-2-1l1-1h-1v1-1a1 1 0 0 1 0-1 2 2 0 0 1 1 0h-2l1-1v-1h-1v1a1 1 0 0 0-1-1h2l-1-1h-1 1v-1h-1l1-1a1 1 0 0 0-1-1h-1v1a2 2 0 0 0 0-1h2v-1h-1a1 1 0 0 1-1 0l1-1v-1a7 7 0 0 1-2 0l1-1 1 1v-1a1 1 0 0 1 0-1l-1 1v-1a1 1 0 0 0-1 1v-1a1 1 0 0 1 0-1h-1 1v-1l-1-1h1v1l1-1-1-1 1-1-2-1v-1h-1a2 2 0 0 0 0-1 2 2 0 0 0 0-1l-1-2v-1l-1-1a2 2 0 0 0 0-1l-1 1 1-1H7v-1l-1-1h1v-1a2 2 0 0 1 0-1H6v1l-1-1 1-1H5v-1l-1-1 1-2v-1a2 2 0 0 1-1 0v2l-1-1 1-1a5 5 0 0 1-2 0v-1h1l-1-1h1v1a3 3 0 0 1 1-1l-1-1v-1 1-1a2 2 0 0 1 0-1l-1 1v-1h1l-1-2v-1l1 1h1l-1-1v-1l-1 1v-1h1v-1h1L3 9a4 4 0 0 1 1-2H3l1-1v1-1h1a1 1 0 0 1 0-1 1 1 0 0 0 0-1V3a2 2 0 0 0 1 1H5h1V3l1 1V3l1-2a2 2 0 0 0 1 0 2 2 0 0 0 1 0v1-1h1l1-1zM2 8zm1-5v1H2l1-1zm0 18v1a2 2 0 0 0-1 1v-1a2 2 0 0 0 1-1zM3 5v1zm0 9v1-1zm0 6a2 2 0 0 1 1 0v-1l-1 1zM3 5h1-1zm1 19v1H3v-1h1zM4 8V7a2 2 0 0 1 0 1zm0 6v-1 1zm0-9zm0 2zm0 18 1 1-1-1zm0 4v1zm0-12v1h1v-1zm2 6v1a1 1 0 0 1 0-1zm0 1v1h1a2 2 0 0 1 0-1zm0 6h1-1zM7 2H6h1zm0 29v1zm0-2a3 3 0 0 1 1 0v-1a2 2 0 0 1-1 1zm0 0v1h1l-1-1zM7 3h1zm0 25h1zm1 3v1zm1 3H8h1zM8 2v1l1-1zm0 30h1v1H8zm1 3v1H8l1-1zm0-5a2 2 0 0 1 0 1v-1zm0 4v1zm0-2zm0 4h1-1zm0-6v1h1v-1zm1 3zm0 1v1-1zm0 9zm0-8a2 2 0 0 1 1 1l-1-1zm0 5h1v1h-1zm0 1 1 1h-1zm0-4h1v1l-1-1zm1-4zm0 5 1 1-1 1v-1zm0 8zm0-11zm0-34v1h1V1a2 2 0 0 1-1 0zm0 33zm0 8h1v1h-1zm1-2zm0-40v1l1-1zm1 44a1 1 0 0 1-1 0h1zm0-1zm1 0v1-1zm0 6v1-1zm0-4zm0-45h1v1h-1zm0 54h1-1zm1 5h1-1zm1-1zm0-1h1v1l-1-1zm1-1v1-1zm0 9h1v1a2 2 0 0 0-1-1zm1-4v1zm0-2a2 2 0 0 1 0 1v-1zm0 7a5 5 0 0 0 0 1zm0 2 1 1v1a2 2 0 0 0-1-1zm0-10v1-1zm0-55h1zm1 69v1zm0-9zm0-59v1h1l-1-1zm0 67 1 1h-1zm0 8h1-1zm1-7zm0 3zm0-70h1a2 2 0 0 1-1 0zm0 70h1-1zm0 7zm0-11h1zm1-1a1 1 0 0 1 0 1 1 1 0 0 1 1-1zm0 3v1-1zm0 5zm0 20v1-1zm0-25zm0-70zm0 68v1-1zm0 6v1zm0 2zm0 4v1zm0-76v1-1zm0 74h1a5 5 0 0 0 0 1l-1-1zm0 7 1 1h-1zm1 1zm0-77zm0 5zm1 58-1 1h1v-1zm-1 13h1v1h-1zm1-73zm0 69v1a2 2 0 0 0 0-1zm0 11zm0 1v1-1zm0-13a2 2 0 0 0 0 1v-1zm0-61v1-1zm0 55zm0 13v1zm0 9h1-1zm0 10v1zm0-89v1-1zm0 1h1-1zm0 60h1zm1 16a2 2 0 0 0 0 1h-1l1-1zm0-8-1 1v-1h1zm-1 3h2-2zm1 15v1h-1l1-1zm0 3v1h-1l1-1zm0-12a2 2 0 0 0 0 1zm0 6a6 6 0 0 0 0 1v-1zm0-89v1zm0 11v1a2 2 0 0 1 1 0v-1zm0 62zm0 2zm0-71h1-1zm0 72h1-1zm0 5h1-1zm1-13zm0 2a2 2 0 0 1 0 1v-1zm0 21v1zm0-22zm0 11zm0 8v1a1 1 0 0 1 1 0v-1h-1zm0 3 1 1h-1a1 1 0 0 0 0-1zm0 6zm0-100v1zm0 8v1zm0 87 1 1h-1v-1zm0-76h1zm0 62v1-1zm0 7zm1-81h-1 1zm0 80v1-1zm0-6zm0 3v1-1zm0 2v1-1zm0 4v1-1zm0 10v1zm0 3zm0-86h1v1l-1-1zm0 82h1v1l-1-1zm0-10h1v-1l-1 1zm1-7zm0 11v1-1zm0 4h1l-1 1h1l-1-2v1zm0-78h1a7 7 0 0 1-1 0zm0 73v1-1zm0-72zm0 79h1v1h-1zm0-70h1zm0 66h1zm1 10v1-1zm0-83h1v1h-1v-1zm0 7a2 2 0 0 1 1 0h-1zm0 72h1a1 1 0 0 0-1 0zm0-2h1v1h-1zm0 5h1v1h-1zm1-72a1 1 0 0 1-1 0l1 1v-1zm-1 70h1-1zm1-68zm0 70zm0-100h1-1zm0 24v1zm0 8h1zm1 66h-1 1zm-1 1 1 1a2 2 0 0 0-1 0zm1-73v1zm0 70zm0 0v1-1zm0-70h1zm0 8zm0 67h1-1zm0 3h1-1zm1-85h1l-1 1h1-1zm0 13a1 1 0 0 0 1 0v1h-1zm0 64v1h1v-1zm1-54v1-1zm0-6h1-1zm0 4v1h1a1 1 0 0 1 0-1zm0 2h1zm1-5zm0 61v1-1zm0-59h1-1zm0 4a2 2 0 0 1 0 1h1v-1a2 2 0 0 1-1 0zm1-1zm0 58a2 2 0 0 1 0 1h1l-1-1zm0 1v1l1-1zm1-53v1-1zm0 4zm0 52h1v1l-1-1zm1 2h-1 1zm0-59v1-1zm0 4v1-1zm0-1zm0-6zm1 1v1h-1l1-1zm0 10zm0 3v-1 1zm0 44v1zm0 1zm1-46a2 2 0 0 1 1 0h-1zm0 0v1-1zm1-2h-1v1h1v-1h1zm-1-3a1 1 0 0 0 1 0 1 1 0 0 0-1 1zm0 52v1zm1-53v1h-1v-1h1zm0 7zm0-8v1zm0 9v1-1h1-1zm0-5v1-1zm0 51h1-1zm0-49h1-1zm0-9h1v1h-1zm0 3h1-1zm1 7-1 1h1v-1zm0 0 1-2-1 2zm0 1v1-1zm1 43a1 1 0 0 1-1 0v1l1-1zm-1-56h1-1zm1 1v1a1 1 0 0 1 1-1v1-1 1a2 2 0 0 0-1 0v-1zm0 2v1zm0 55 1 1a1 1 0 0 0-1 1 1 1 0 0 0 0-1v-1zm0-94zm0 33v1zm0 11a2 2 0 0 1 0 1 1 1 0 0 1 1 0l-1-1zm0 6zm0-16h1-1zm0 1h1v1h-1zm0 9h1zm0 3h1zm1-14v1zm0 1h1l-1 1a2 2 0 0 0 0-1zm0 61h1v1l-1-1zm1 1v1l-1-1zm-1-66h1v1l-1-1zm1-3v1-1zm0 12zm0 5zm0-19h1a2 2 0 0 0-1 1v-1zm0-5h1v1h-1v-1h1-1zm0 20h1zm1-6v1-1zm0 3v1a1 1 0 0 1 0-1zm0 58v1zm0-77zm0 6v1zm0 16zm0 53zm1-67h-1l1 1h-1 1v-1zm-1 9zm0 2v1h1v-1zm0 51v1h1v-1zm0-75h1-1zm0 19h1zm0 59h1-1zm0 5h1v1zm1-68v1-1zm0 64a1 1 0 0 0 1 1h-1zm0-3h1a1 1 0 0 1-1 0zm0 1h1zm0 4zm1 1-1 1 1-1zm-1-84h1-1zm0 15h1zm0-4v1h1v-1zm0 4h1zm0 64h1zm1-70zm0 73h1l-1 1v-1zm0-90v1zm0 92zm0-82v1h1v-1zm0 6h1zm0-7h1zm1-14h1-1zm0 2a2 2 0 0 0 1 0l-1 1v-1zm0 11v1a1 1 0 0 1 1 0l-1-1zm0-20zm0 2v1zm0 16v1-1zm0 6zm0 1v1a2 2 0 0 1 0-1zm0 2zm0-32h1-1zm0 22v1h1v-1zm0 5h1zm0 76h1zm0 5h1v1c0 1 0 0 0 0zm1 1v2h-1l1-2zM47 19h1-1zm1 12-1 1a2 2 0 0 1 1 0v-1zm0-22v1zm0 10v1zm0 2v1-1zm0 14zm0 0v1zm0 6v1-1zm0 72v1-1zm0-97zm0 12v1-1zm0 85zm0-96v1h1v-1zm0 7a2 2 0 0 1 0 1l1-1h-1zm0 4h1zm1-17a2 2 0 0 1-1 1h1a2 2 0 0 1 0-1zm-1 2h1zm1 1zm0 1a2 2 0 0 1 1 0zm0 95v1-1zm0 11h1v1h-1zm2-1v1h-1l-1-1a3 3 0 0 1 2-1zm-2-25h1zm1 21v1a2 2 0 0 0-1 0v-1h1zm-1 2h1-1zm1-108v1-1zm0 97zm0 11h1v1h-1v-1zm0-29zm0 1zm0 1zm0 3zm0 20zm0 1h1-1zm0-18h1zm0 2h1v-1a2 2 0 0 1-1 1zm1 4v1-1zm0-8v1a2 2 0 0 1 1-1h-1zm0-4h1zm0 9h1zm0 1zm0-19 1 1v-1zm1 28v1h1v1a3 3 0 0 1-2-1 2 2 0 0 0 1-1zm-1 4h1-1zm1 2v1h-1v-1h1zm0-36v1-1zm0 7v1-1zm0 10v-1 1zm0 6v1-1zm0 9v1zM52 6v1-1zm0 96zm1 12h1v1h-1v1a1 1 0 0 1-1-2 2 2 0 0 0 1 0zM52 4h1-1zm0 82h1zm0 23h1a2 2 0 0 1-1 0zm0 4h1v1h-1a2 2 0 0 0 0-1zm0-32v1h1v-1zm1 18h1l-1 2h-1l1-1h-1zm-1 6h1v1zm0 1h1v1l-1-1zm0 13h1v1h-1zm2-36-1 2 1-1v-1zm-1-1 1 1v-1zm0 6h1v1l-1 1v-1h1l-1-1zm0 4v1-1zm0-13h1zm0 32 1 1h-1zM53 6v1h1V6zm1 90h1-1l1 1-1 1-1-1v-1h1zm0 9v1a2 2 0 0 0-1 0zm0 4a2 2 0 0 0 0 1h-1a1 1 0 0 0 1-1zm0 9v1h-1l1-1zM54 5v1-1zm0 74zm0 17v1-1zm0-10v1-1zm0 13zm0 1v1zm0 1a8 8 0 0 1 1 1l-1 1a5 5 0 0 1 0-2zm0 15v1zm0 5zm0-51v1a2 2 0 0 1 1 0l-1-1zm0 6v2h2v-1l-1 1a2 2 0 0 0-1-1h1l1-1zm0 32h1v1h-1v-1zm0 2 1 1h-1zm0 5zm0-15h2v1l-2-1zm0-21h2a2 2 0 0 1-1-1 2 2 0 0 1-1 1zm0 19h1-1zm1-16 1 1h-1zm0 21v1-1zm0-22h1l-1 1v-1zm1 6 1 1-2 2a1 1 0 0 0 1-1 2 2 0 0 1-1-1zm-1 1v1-1zm0 16v1zm0-29v1h1l-1-1zm0 17h1l-1 1v-1zm0-22h1zm0 43h1v1h-1zm0-40v1h1v-1zm0 9h1v1a2 2 0 0 1-1-1zm0 12h1-1zm1 3a4 4 0 0 1 0 2h-1v-1h1-1l1-1zm0 19v1h-1v-1h1zm0-48v1a2 2 0 0 1 1-1h-1zm0 2v2h1a2 2 0 0 1 0-1h-1l1-1v1-1h-1zm0 20v1zm0-9 1 1h-1v-1zm0 14 1 1a1 1 0 0 0-1 0 2 2 0 0 0 0-1zm0-29v1h1v-1zm0 2h1zm0 41h1-1zm0-35h1v1l-1-1zm1 18h-1 1zm-1 15h1-1zm1 1v1h-1l1-1zm0 9v1h-1v-1h1zm0-21v1-1zm0 5zm0-35zm0 44v1-1zm0 4zm0-50v1-1zm0 14h1l-1 1v-1zm0 3 1 1h-1zm0-8h1l1 1h-2v-1zm0 10h1-1zm0-80a6 6 0 0 1 1 1l1-1h-1a2 2 0 0 0-1 0zm0 82h1-1zm0 3h1a1 1 0 0 0 0 1l-1-1zm0 4h1v1h-1zm0 4h1a2 2 0 0 0-1 0zm1-29a2 2 0 0 0 0 1 2 2 0 0 1 0-1zm0 22v1zm0 1v1zm0 5zm0 4zm0-39zm0 3v2a1 1 0 0 1 0-1 1 1 0 0 1 0-1zm0 35zm1-36-1 1h1v-1zm-1 25h1-1zm0-18 1 1-1-1zm1 3v1zm0 4a1 1 0 0 0 0 1v-1zm0 1zm0 3zm0 4zm0-17a1 1 0 0 0 0 1zm0 12v1zm0 17zm0-35zm1 22-1 1 1-1zm-1 28zm0-16h1-1zm0 10h1-1zm0 7zm0-52h1zm0 30h1-1zm0 16h1l-1 1zm1-45v-1 1zm0 0a1 1 0 0 1 0 1 2 2 0 0 1 0-1zm0 1v1zm0 6v1zm0 3v1zm0 4h1-1zm0 1v1h1-1zm0 10v1zm0 5v1zm0-24zm0 3h1l-1 1v-1zm0-12h1zm1-5zm0 11v1-1zm0 40zm0-48v1-1zm0 2v1l1-1zm0 8zm0 5h1-1zm1-18-1 1h1a6 6 0 0 0 0-1zm-1 11zm0-7h1zm1 4h-1 1zm-1 2 1 1h-1zm1-62 1 1h-2l1-1zm-1 55h1zm1 10v1zm0 18zm0 8zm0-18zm0-19h1-1zm1 3v1h-1l1-1zm-1 33h1-1zm1-36v1-1zm0 11zm0-13zm1 4v1h-1zM63 2h1v1h-1zm1 39v1-1zm0-37v1-1zm0 47zm0 4v1zm0-53v1zm0 1h1v1h-1V3zm0 42h1zm1 5-1 1 1-1zm-1 9h1-1zm0 36h1-1zm1-54v1-1zm1 8v1h-1l1-1zM65 4h1a1 1 0 0 1-1 0zm0 34h1v-1zm0 20h1l-1 1zm0-19h1zm0 11h1v1l-1-1zm1-43zm0 26v1-1zm0 21v1zm0-19zm0 1zm0 3zm0 7zm0-43 1 1-1-1zm1 41h-1 1zm-1 9h1l-1 1zm0-48v1h1V5zm0 1v1h1V6zm0 39h1v1a2 2 0 0 0-1 0zm1-45zm0 3zm0 28zm0 3a2 2 0 0 0 0 1v1-2zm0 20zm0-12v1zm0 6h1v1h-1zm1-18-1 1h1v-1zm-1 11h1v1h-1zm0 2h1-1zm1-38h1v2l-1-2zm0 33h1-1zm0-15h1zm0 4h1a2 2 0 0 1 0-1 1 1 0 0 1-1 1zm1 4v1-1zm1-24-1 1V7h1zm-1 34zm0-38h1l-1 1zm0 19v1h1a1 1 0 0 0 0-1zm0 3v1h1l-1-1zm0 17h1v1h-1zm1-37zm1 3v1h-1a1 1 0 0 0 0-1h1zm-1 4v-1 1zm0 9v1-1zm0-12 1 1v1a10 10 0 0 1-1-2zm0 11h1-1zm0 11h1v1h-1zm0 3h1-1zm1-9v1zm0 4zm0-13zm0 4zm0 0a2 2 0 0 1 0 1v-1zm0-15zm0 17v-1 1zm1 0v1h-1zm-1 5v1zm1-2h-1 1zm-1-10v1h1v-1zm1 2v1h-1l1-1zm0 5h1v1h-1v-1zm1-8v1zm0 13zm0-19zm0 6zm1 4 1 1h-1zm1 2v1zm1-3v1-1z"/>
  <path fill="#ff227c" d="M60 15v1h-1l1-1zm0-5h1-1zm0 11h1-1zm1-8v1h-1l1-1zm0-8v1zm0 11a2 2 0 0 0 1 1l-1-1zm0-7zm0 6v1zM72 0a1 1 0 0 0 1 0l-1 1h1v1a2 2 0 0 1 1-1v1a2 2 0 0 0 1-1v1-1 1h1V1l1 1a2 2 0 0 1 1 1 2 2 0 0 1 0-1v2l1-1h1v1a4 4 0 0 0 1 1l-1 1 1 1a2 2 0 0 1 0-1V5l1 1v1a6 6 0 0 0 0 1V7h1v1a2 2 0 0 0-1 1h1a2 2 0 0 0 0 1h-1a3 3 0 0 1 0-1h-1a6 6 0 0 1 1 2h-1 1a1 1 0 0 0 1 0 4 4 0 0 1-1 2l1-1h1l-1 1h1v1h-1v-1 1l-1-1v1a8 8 0 0 1-1 1 2 2 0 0 1 0 1h1v-1l1 1a2 2 0 0 0-1 0h1v1l-1 1v-1 1h1a3 3 0 0 1 0 1v1h1-1v1h1l-1 1a4 4 0 0 0 1 1v1l-1-1v1l1 1v-1 1h1l-1 2 1-1v1h1a2 2 0 0 1 0 1h-1a2 2 0 0 1-1-1v2a1 1 0 0 0 0 1h1a2 2 0 0 1-1-1h1v1h1v1a2 2 0 0 1-1 0v1h1-1a7 7 0 0 0 1 2h1l1 1v1h-1v-1h-1v1a2 2 0 0 0 0 1l1-1v1l-1 2a3 3 0 0 1 2-1v1a1 1 0 0 0-1 1h1v-1 1l-1 1h1v-1 2l1-1v1a2 2 0 0 0-1 0v1h2l-1 1v2a12 12 0 0 0 1 0v2a1 1 0 0 1-1 0 3 3 0 0 1 2 1h-1v1h1l-1 1h1v2h1l-1 1h-1a2 2 0 0 1 1 0h1v1l1 1 1 1h-1v1-1a8 8 0 0 0 1 2l-1 1h1v1h-1v1h2a1 1 0 0 1-1 0v-1h1v3h-1v-1a2 2 0 0 0 1 0l-1-1v1l1 1v1l1-1v1h-1v1l2-1v1a1 1 0 0 0-1 0v1h1a2 2 0 0 1 0 1 1 1 0 0 1 0 1v2-1l1-1v2l1-2v1l1 1v-1h-1 1a2 2 0 0 1 0-1l1-1a2 2 0 0 1 1 0h1a5 5 0 0 0-2 0v-1h1l-1-1v1l-1-1v1h1l-1 1v-1a2 2 0 0 0 0 1h-1l1-1h-1 1-1l2-2v-1h1v-1l-1-1 1-1 1 1v-1l-1-1 1-1-1-1h1a2 2 0 0 1 0 1h1v-2a1 1 0 0 1-1 0 2 2 0 0 1-1 0h1-1v-1h1a4 4 0 0 0 1 0v-1 1h-1a3 3 0 0 0 0-2l1 1v-1h-1a2 2 0 0 1 0-1 1 1 0 0 1 0-1 2 2 0 0 1 0-1 5 5 0 0 1 2-1l-1-1v-2h1v-1a2 2 0 0 1-1-1 2 2 0 0 1-1 1l2-2v1-1l-1-1h1a1 1 0 0 1 1-1 2 2 0 0 1-1 0 1 1 0 0 0-1 0l1-1v1-1h1v-1h-2v-1l1 1h1v-1h-1a4 4 0 0 0 0-2v1-1h1v-1l1-1h-1a7 7 0 0 1 0-1 3 3 0 0 1 1-1h-2a2 2 0 0 0 2-1 2 2 0 0 0-1 0v-1a3 3 0 0 1 0-1l1 1v-1h-1 1v-1a2 2 0 0 1 0-1l-1-1v-1h1a1 1 0 0 0 0 1l1-1a7 7 0 0 1-1-2h1l-1-1a2 2 0 0 0 0-1v-1a1 1 0 0 0 1 0 4 4 0 0 0 0-2l-1-1a1 1 0 0 1 0-1h1-2l1-1v-2h1-1v-1h1v-1a2 2 0 0 1-1 0l1-1v-1l1 1v-1h-1V9h1l1-2V6v1h1V6h-1a1 1 0 0 0 1-1h2l-1-1h1a3 3 0 0 0 1 1V4a3 3 0 0 1-1 0 2 2 0 0 1 1-1v1a2 2 0 0 1 1-1l1 1a2 2 0 0 0 0-1V2h1l-1 1h1a2 2 0 0 1 0-1 3 3 0 0 0 1-1v1h1l1 1V1l1 2h1V2a1 1 0 0 0 1 1h-1a6 6 0 0 1 2 1 1 1 0 0 1 1-1h1-1l1 1h-1v2l1-1h1l-1 1a1 1 0 0 1 1 1V6h1-1v1l1 1a1 1 0 0 0 1 1h-1 1v2-1h1a2 2 0 0 0 0 1v1a1 1 0 0 1 0 1l1-1v-1a2 2 0 0 0 0-1l1 1h-1a2 2 0 0 1 1 1l2 1h-1v-1 1h-1v1l-1-1a2 2 0 0 0 0 1h1v3l1-1v1h-3v1l1 1v-1h1a2 2 0 0 0 0 1l-1 1v1l1-1h1v1h-1v-1 2a2 2 0 0 0-1 0l-1 1v-1 2a1 1 0 0 1 0-1l1 2-1-1h-1a3 3 0 0 1 1 2v1a1 1 0 0 1 0-1v1h-1l1 1-1 1-1-2-1 2 1-1v2h1v1h-2l1 1h-1 1-2l1 1a2 2 0 0 1-1 0h1l2 1h-1 1-2l1 1-2 1v1h1v-1 1h-1 1a2 2 0 0 1-1 0v1l1 1a2 2 0 0 0-1 0l-1 1h1v1h-1l1 1h-1 1v1h-1l1 1h-1l-1-1v1l1 1v1h-1a1 1 0 0 0-1 0l1 1h1a1 1 0 0 0 0 1 2 2 0 0 1-1 0 3 3 0 0 1 0 1 1 1 0 0 0-1 1v-1 1l-1 1v-1 1h1l-1 1v1h1-1a2 2 0 0 0 1-1v1h1v-1a2 2 0 0 0 1 0l-1 1v1-1h-1v1h1a2 2 0 0 0-1 1v-1h-1v1h-1v1l1-1v1l-1 1h1v2h-2l1 1a1 1 0 0 0 0-1h1v1a2 2 0 0 0-1 1l-1-1h-1 1v1l1 1h-1v1a2 2 0 0 0-1 1h1-1v-1l-1 1h1v1h1v1-1a2 2 0 0 1-1 1v1h-1v-1a3 3 0 0 1 0 1v1l1 1-1-1a8 8 0 0 1-2 1h1v1a2 2 0 0 1 1 0 1 1 0 0 0-1 1 2 2 0 0 0 1 0l-1 1-1 1h1l-1 1v2h1l1-1h-1 1a2 2 0 0 1-1 2l-1 1v1-1 2-1a2 2 0 0 1 1 1 1 1 0 0 1 1 0h-2v1l-1-1h1v-1c-2 1-3 2-3 4a2 2 0 0 1 1 0h1l-1 1v1h1v-1 2h1v1a1 1 0 0 0-1-1v1-1a1 1 0 0 1-1 1h-1l1 1h-1v-1h-1v3a3 3 0 0 1-1-1v1a2 2 0 0 0 1 0 2 2 0 0 0 1 0v1h1a1 1 0 0 1 0-1l1 1-1 2-1-1h1l-1-1v1h-1l1-1h-1a1 1 0 0 1-1 0h1l-1 1 1 1-1-1h-1a2 2 0 0 1 0 1h1l1 1h1v1-1a1 1 0 0 0 1 1v-1l-1-1h1a3 3 0 0 0 1 0 5 5 0 0 1-1 2h1a7 7 0 0 1-2 0 3 3 0 0 0 0 1h-1v-2a1 1 0 0 1-1 0 2 2 0 0 1 1 1l-1 1a1 1 0 0 1 1 0v1l1 1h-2v1h1v1l-1 1a2 2 0 0 0 2 0l-1 1v1l1 1h1-2l-1 1h-1 1v1l1 1h-1 1v1h-2 2l1-1v1a1 1 0 0 1 0 1h-2a11 11 0 0 1-1 2h-1 1v-1h-1v1a9 9 0 0 1 0 2l1-1a10 10 0 0 0 1 2h-2v1l-1-1h-1v1a2 2 0 0 1 1 0v1l-2-2a2 2 0 0 1 0 2l1-1v1l1 1v1l-2-2-4 2h1l1 1h-1l1 1h-2l-1-1h1a2 2 0 0 1 0-1h-1 1-2v1l-1-1h1l-1 1v1l-1-1v1-2h-1 2v-1h-1l1 1h-1v-1l-1 1v-1l-1 1h-1v1-1 1h-1a1 1 0 0 0-1-1 2 2 0 0 0 0-1 2 2 0 0 1-1 0v1h-1v-1a2 2 0 0 0 1-1h1a4 4 0 0 1-1-1h-1l1 1h-1v-1 2l-1-1h1l-2-1v-1h2-1a2 2 0 0 0 0-1v1h-1l-1-3v-1l-1 1v-1l-1 1v-1h-1a1 1 0 0 0-1 0 2 2 0 0 0 2-1v-1l-1 1v-1h1v-1l1 1v-1a4 4 0 0 1-1 0 1 1 0 0 1-1-1h1v-1l-1-1v1-1 1h-1v-2a2 2 0 0 0 0-1l1-1h-2l-1-1h1v1a2 2 0 0 0 0-1h1v-2h1a1 1 0 0 1 1 0 2 2 0 0 1-1-2h-1 2a2 2 0 0 0-2-2v-1h1a1 1 0 0 1 0-1h1l-1-1h1l-1-1v1h-1a2 2 0 0 0 0-1l2-1h-2l1-1h-1a11 11 0 0 0 1-2l-1 1h-2l2-2-1-1a2 2 0 0 0 0-1h1v1-1h-1l1-1-1 1v-1h-1l-1-1h1v-1a3 3 0 0 1 1 0h-1a1 1 0 0 0-1-1l1-1h-1l1-1a2 2 0 0 1-1-1h1-1a1 1 0 0 1 0-1 1 1 0 0 1-1 0l-1-2v1-1h1v-1l-1-1h1-1l1-1-2-1h2-1v-1a2 2 0 0 1-1 0 2 2 0 0 0 1-1 1 1 0 0 1-1-1h1a1 1 0 0 1-1-2 1 1 0 0 0 1 1 1 1 0 0 1 0-1h-1l-1-1h1v1-1a3 3 0 0 1 0-1 2 2 0 0 0 0-1 1 1 0 0 1-1-1h-1a1 1 0 0 1 1 1h-1v-1a2 2 0 0 0 0-1l1 1v-1h-2l2-1a2 2 0 0 0-1-1v-1 1h-1v-1a1 1 0 0 1 0-1 1 1 0 0 1 1 0h-2l1-1v-1 1h-1a1 1 0 0 0 0-1h1v-1h-1 1v-1h-1v-1a1 1 0 0 0-1-1h1-1v1a2 2 0 0 0-1-1h2v-1h-1v-2h1a7 7 0 0 1-2 0v-1h1v1-1a1 1 0 0 1 0-1v1l-1-1a1 1 0 0 0 0 1h-1v-1h1a1 1 0 0 1-1-1h1v-1l-1-1v1l1-1v-2l-1-1v-1h-2a2 2 0 0 0 0-1 2 2 0 0 0 0-1l-1-2h1v-1h-1l-1-1a2 2 0 0 0 1-1h-1v1-1h-1v-1l-1-1h1v1l1-1-1-1a2 2 0 0 1 0-1h-1v1-2l-1-1h1l-1-1v-3a2 2 0 0 1-1 0l1 1h-1v1l-1-1 1-1a5 5 0 0 1-2-1h1v-1h1-1v1a3 3 0 0 1 1-1l-1-1 1-1v1-1a2 2 0 0 1-1-1v1-1l-1-2a2 2 0 0 0 1 0l-1-1h1l1 1-1-1h1v-1h-1v1-1h1v-1h-1 1l-1-1a4 4 0 0 1 1-2h-1l1-1v1h1V6a1 1 0 0 1 0-1h1-1a1 1 0 0 0 0-1V3a2 2 0 0 0 1 1h1l-1-1h1v1-1l2-2a2 2 0 0 0 1 0v1h1V1l1-1zM61 8h1-1zm1-5v1-1zm0 18h1v1a2 2 0 0 0-1 1v-1a2 2 0 0 0 0-1zm0-16h1v1h-1zm0 9v1h1v-1zm0 6h1a2 2 0 0 1 1 0v-1h-1l-1 1zm1-15zm0 19h1l-1 1v-1zm0-16h1V7a2 2 0 0 1-1 1zm0 6v-1 1zm0-9h1-1zm0 2h1zm1 18v1l-1-1zm-1 4h1v1h-1zm1-12v1-1zm1 7h1a1 1 0 0 1-1 0zm1 0v1a2 2 0 0 1 0-1zm0 6zm0-28a1 1 0 0 0 1 0h-1zm0 29v1zm1-2a3 3 0 0 1 1 0v-1a2 2 0 0 1-1 1zm0 0v1-1zm0-26zm0 25zm0 3 1 1h-1zm1 3zm0-32v1-1zm0 30v1zm0 3v1-1zm0-5a2 2 0 0 1 0 1v-1zm0 4v1zm0-2h1zm1 4h-1 1zm0-6v1-1zm0 3h1zm0 1 1 1v-1zm0 9h1-1zm1-8a2 2 0 0 1 0 1h1l-1-1zm0 5v1zm0 1v1zm0-4v1-1zm0-4zm0 5h1v2h-1l1-1a2 2 0 0 0-1 0zm0 8h1-1zm0-11h1zm1-34v1-1zm0 33zm0 8v1zm0-2h1-1zm1-40v1-1zm0 44h1zm0-1h1zm1 0v1-1zm0 6v1-1zm1-4zm0-45v1zm0 54zm1 5zm0-1h1-1zm1-1 1 1h-1v-1zm0-1v1h1v-1zm1 9h1l-1 1a2 2 0 0 0 0-1zm0-4v1zm1-2a2 2 0 0 1-1 1h1v-1zm-1 7h1a6 6 0 0 0 0 1h-1zm0 2 1 1v1a2 2 0 0 0 0-1h-1zm0-10v1h1v-1zm1-55zm0 69h1v1h-1zm1-9zm0-59v1-1zm0 67v1zm0 8zm0-7zm0 3zm0-70v1h1V5a2 2 0 0 1-1 0zm1 70zm0 7zm0-11zm0-1a1 1 0 0 1 0 1 1 1 0 0 1 1-1zm0 3v1h1v-1zm0 5zm0 20h1v1l-1-1zm0-25h1zm1-70v1zm0 68v1-1zm0 6v1zm0 2zm0 4v1zm0-76v1-1zm0 74a5 5 0 0 0 0 1v-1zm0 7v1zm1 1h-1 1zm-1-77h1zm0 5h1zm1 58v1l1-1zm0 13v1zm0-73a2 2 0 0 0 1 0h-1zm0 69h1l-1 1a2 2 0 0 0 0-1zm0 11zm1 1-1 1 1-1zm-1-13h1a2 2 0 0 0 0 1h-1v-1zm0-61v1h1v-1zm0 55h1zm0 13 1 1h-1zm1 9h-1 1zm-1 10h1v1h-1zm1-89v1-1zm0 1zm0 60zm0 16a2 2 0 0 0 0 1v-1zm0-8v1-1zm0 3h1-1zm0 15 1 1h-1v-1zm0 3v1-1zm0-12h1a2 2 0 0 0 0 1h-1zm0 6h1a6 6 0 0 0 0 1l-1-1zm0-89h1v1h-1zm0 11v1a2 2 0 0 1 1 0zm0 62h1-1zm0 2h1-1zm1-71zm0 72zm0 5zm0-13zm0 2a1 1 0 0 1 0 1l1-1zm0 21v1zm0-22h1zm0 11zm1 8h-1v1a2 2 0 0 1 1 0v-1zm0 3v1a1 1 0 0 0-1-1h1zm0 6h-1 1zm-1-99h1-1zm0 7h1v1h-1zm0 87h1v1l-1-1zm1-76zm0 63v-1zm0 6zm0-81zm0 80v1h1v-1zm0-6h1zm0 3v1h1v-1zm0 2v1h1v-1zm0 4v1h1l-1-1zm0 10h1v1h-1zm0 3h1-1zm1-86v1-1zm0 82v1-1zm0-10v-1 1zm0-7zm0 11 1 1v-1zm0 4h1v1h1l-1-2h-1v1zm1-78a7 7 0 0 1-1 0h1zm-1 73v1-1zm0-72h1-1zm1 79v1zm0-70zm0 66zm1 10v1h-1l1-1zm-1-83h1v1l-1-1zm0 7a2 2 0 0 1 1 0zm1 72a1 1 0 0 0-1 0h1zm0-2v1zm0 5v1zm0-72 1 1v-1zm0 70zm0-68zm0 70h1-1zm1-100zm0 24v1zm0 8zm0 66zm0 1 1 1a2 2 0 0 0-1 0zm0-73v1zm0 70zm0 0v1l1-1zm1-70h-1 1zm-1 8h1zm1 67zm0 3zm1-85v1zm0 13v1zm0 64v1-1zm0-54v1-1zm1-6zm0 4v1h1a1 1 0 0 1 0-1zm0 2zm0-5h1-1zm0 61v1h1v-1zm1-59zm0 4a2 2 0 0 1 0 1v-1zm0-1zm0 59a2 2 0 0 1 1 0zm1 0v1-1zm0-52zm1 3zm0 52v1-1zm0 2zm0-59h1l-1 1v-1zm0 4 1 1h-1v1h1v-1l-1-1zm0-1h1-1zm0-6h1-1zm1 1v1-1zm0 10zm0 3h1v-1l-1 1zm0 44h1v1h-1zm1 1-1 1v-1h1zm0-46a2 2 0 0 1 1 0zm0 1zm1-3h-1v1h1v-1h1zm-1-3a2 2 0 0 0 1 0 2 2 0 0 0-1 1zm0 52h1v1h-1zm1-53v1-1zm0 7zm0-8h1l-1 1zm1 9a2 2 0 0 1-1 0v1h1v-1zm-1-5v1h1v-1zm0 51h1-1zm1-49zm0-9h1v1h-1zm0 3zm0 7v1l1-1zm0 0h1v-2l-1 2zm0 1v1h1v-1zm1 43a1 1 0 0 1-1 0l1 1v-1zm0-56zm1 1h-1v1h1a1 1 0 0 1 0-1l1 1v-1 1h-2l1-1zm-1 2v1zm1 55v1a1 1 0 0 0 0 1 1 1 0 0 0-1-1l1-1zm-1-94h1-1zm0 33h1l-1 1zm0 11a2 2 0 0 1 1 1h-1a1 1 0 0 1 1 0v-1zm0 6h1zm1-16zm0 1v1zm0 9h1-1zm0 3zm0-14h1l-1 1zm1 1v1h-1a2 2 0 0 0 1-1zm0 61v1-1zm0 1v1-1zm0-66h1v1h-1v-1zm0-3h1v1l-1-1zm0 12zm0 5zm1-19a2 2 0 0 0-1 1v-1h1zm0-5v1-1zm0 20zm0-6v1-1zm0 3v1a1 1 0 0 1 1-1zm0 58v1zm0-77h1zm1 6v1zm0 16zm0 53zm0-67v1-1h1zm0 9zm0 2v1-1zm0 51v1-1zm0-75zm0 19zm0 59zm0 5v1zm0-68v1h1v-1zm0 64a1 1 0 0 0 1 1h-1zm0-3h1a1 1 0 0 1-1 0zm0 1h1zm0 4h1-1zm1 1v1h-1l1-1zm0-84zm0 15v-1zm0-4v1-1zm0 4zm0 64zm0-70zm0 73h2l-1 1h-1v-1zm0-90v1zm0 92h1-1zm1-82v1-1zm0 6zm0-7zm1-14h-1 1zm0 2v1l-1-1h1zm0 11-1 1h1v-1zm-1-20h1-1zm0 2 1 1h-1zm0 16v1h1v-1zm0 6h1zm0 1v1h1a2 2 0 0 1 0-1zm0 2h1zm1-32zm0 22v1-1zm0 5zm0 76zm0 5 1 1h-1zm0 1 1 1h-1 1l-1 1v-2zm0-101zm0 12v1-1zm0-22v1zm0 10h1v1h-1zm0 2v1l1-1zm0 14zm0 1zm0 5v1-1zm0 72v1-1zm0-97h1zm0 12 1 1v-1zm0 85h1zm1-96v1-1zm0 7a2 2 0 0 1 0 1v-1zm0 4zm0-17a2 2 0 0 1 0 1h1a2 2 0 0 1 0-1zm0 2zm0 1zm0 1a2 2 0 0 1 1 0zm0 95v1h1v-1zm0 11h1v1h-1zm2-1h1v1h-1l-1-1a3 3 0 0 1 1-1zm-1-25zm0 21 1 1h-1v-1zm0 2zm0-108v1-1zm0 97zm0 11h1l1 1h-2v-1zm0-29zm0 1zm1 1zm0 3zm0 20zm0 1zm0-18h1zm0 2h1v-1a2 2 0 0 1-1 1zm0 4v1-1zm1-8h-1 1v1h-1a1 1 0 0 1 1 0 2 2 0 0 1 0-1zm0-4zm0 9zm0 1zm0-19v1-1zm0 28v1h1v1a3 3 0 0 1-1-1 2 2 0 0 0 0-1zm0 4zm0 2h1-1l1 1h-1v-1zm0-36v1-1zm0 7v1-1zm0 10v-1 1zm0 6v1h1v-1a5 5 0 0 0-1 0zm0 9v1zm0-106v1h1V6zm0 96h1zm1 12h1v1h-1 1v1a1 1 0 0 1-2-2 2 2 0 0 0 1 0zm0-110zm0 82zm0 23zm0 4v1a2 2 0 0 0 0-1zm0-32v1-1zm1 18-1 2v-1zm-1 6v1zm0 1h1v1l-1-1zm0 13v1zm1-36-1 2 2-1-1-1zm-1-1 1 1v-1zm0 6h1v1h1l-1 1h-1v-1h1l-1-1zm1 4v1h-1l1-1zm-1-13h1zm0 32h1v1h-1zm1-105v1-1zm0 90h1v1l-1 1v-2zm0 10zm0 3a2 2 0 0 0 0 1 1 1 0 0 0 0-1zm0 9 1 1h-1v-1zm0-113v1-1zm0 74zm0 17v1h1v-1zm0-10 1 1v-1zm0 13h1-1zm0 1h1v1h-1zm0 1h1a7 7 0 0 1 0 1v1a5 5 0 0 1-1-2zm0 15v1zm1 5h-1zm-1-51v1a2 2 0 0 1 1 0l-1-1zm1 6-1 1 1 1h1v-1 1a2 2 0 0 0-1-1h1l1-1zm0 32v1h-1l1-1zm0 2v1h-1zm-1 5h1-1zm1-15h1v1l-1-1zm0-21h1a2 2 0 0 1 0-1 1 1 0 0 1-1 1zm0 19zm0-16 1 1h-1zm0 21 1 1h-1v-1zm1-22h-1zm0 6 1 1-2 2v-1a1 1 0 0 0 1 0 2 2 0 0 1 0-2zm0 1v1h-1l1-1zm-1 16h1v1h-1zm0-29v1h2l-2-1zm0 17h1v1l-1-1zm1-22zm0 43v1zm0-40v1-1zm0 9 1 1h-1a2 2 0 0 1 0-1zm0 12zm0 3a4 4 0 0 1 1 2h-1v-2zm0 19v1-1zm0-48v1h1a2 2 0 0 1 0-1 1 1 0 0 1-1 0zm1 2h-1l1 1-1 1h1a2 2 0 0 1 1-1h-1v-1 1h1v-1h-1zm-1 20h1v1h-1zm0-9h1v1l-1-1zm1 14v1a1 1 0 0 0-1 0 2 2 0 0 0 1-1zm0-29v1-1zm0 2zm0 41zm0-35v1-1zm0 18h1-1zm0 15zm0 1v1-1zm0 9v1-1zm0-21h1v1h-1v-1zm0 5zm1-35h-1 1zm0 44v1h-1l1-1zm-1 4h1-1zm0-50v1h1l-1-1zm0 14h1v1l-1-1zm0 3h1v1h-1zm1-8h1v1h-1v-1zm0 10zm0-80a6 6 0 0 1 1 1V3a2 2 0 0 0-1 0zm0 82zm0 3h1a1 1 0 0 0 0 1h-1v-1zm0 4v1zm0 4a1 1 0 0 0 1 0 2 2 0 0 0-1 0zm0-29a2 2 0 0 0 0 1h1a2 2 0 0 1 0-1 2 2 0 0 1-1 0zm0 22v1zm0 1v1zm0 5h1-1zm0 4h1-1zm0-39h1zm0 3v2h1a1 1 0 0 1 0-1 1 1 0 0 1 0-1zm0 35h1-1zm1-36v1h1l-1-1zm0 25zm0-18v1-1zm0 3v1zm0 4h1a1 1 0 0 0-1 1v-1zm0 1zm0 3zm0 4zm0-17h1a1 1 0 0 0 0 1h-1zm1 12v1h-1zm-1 17h1-1zm0-35h1-1zm1 22v1h-1l1-1zm-1 28h1-1zm1-16zm0 10zm0 7v1zm0-52zm0 30zm0 16v1zm0-45h1v-1l-1 1zm0 0a1 1 0 0 1 0 1h1a2 2 0 0 1 0-1zm0 2h1v-1l-1 1zm0 5h1v1h-1zm0 3h1v1h-1zm0 4h1a2 2 0 0 0-1 0zm0 1h1v1a2 2 0 0 0-1 0zm0 10v1zm0 5 1 1h-1zm0-24h1v1h-1zm1 3v1l-1-1h1zm0-12zm0-5zm0 11v1-1zm0 40zm0-48v1l1-1zm1 2h-1v1h1v-1zm-1 8zm0 5h1-1zm1-18-1 1h1a6 6 0 0 0 0-1zm-1 11h1-1zm1-7zm0 4zm0 2v1zm0-62 1 1h-1V1zm0 55zm0 10v1zm0 18h1zm0 8h1-1zm1-18zm0-19h1-1zm0 3v1-1zm0 33zm1-36v1h-1l1-1zm-1 11h1-1zm0-13h1-1zm1 4v1zm0-55v1zm0 39v1-1zm0-37 1 1V4zm0 47zm0 4h1v1h-1zm0-53h1v1h-1zm0 1h1-1zm1 42zm0 5v1-1zm0 9zm0 36zm0-54 1 1v-1h-1zm1 8v1h-1l1-1zm0-45zm0 34v-1zm0 20v1zm0-19zm0 11v1-1zm0-43zm0 26v1-1zm0 21v1zm0-19h1zm0 1h1-1zm0 3h1zm0 7h1-1zm1-43v1-1zm0 41zm0 9zm0-48v1-1zm0 1v1-1zm0 39a1 1 0 0 0 1 0v1a2 2 0 0 0-1 0zm0-45h1-1zm0 3h1-1zm0 28zm0 3a2 2 0 0 0 0 1v1l1-1v-1zm1 20h-1 1zm0-12v1zm0 6v1zm0-18v1l1-1zm0 11v1zm0 2zm0-38h1l1 1v1l-2-2zm1 33zm0-15v1-1zm0 4a2 2 0 0 1 1-1 1 1 0 0 1-1 1zm0 4h1v1l-1-1zm2-24-1 1V7zm-1 34zm0-38v1zm0 19v1a1 1 0 0 0 0-1zm0 3v1-1zm0 17v1zm0-37zm1 3v1h-1a1 1 0 0 0 0-1h1zm-1 4h1v-1l-1 1zm0 9v1-1zm0-12h1l1 1-1 1a10 10 0 0 1-1-2zm0 11h1zm1 11v1zm0 3zm0-9h1l-1 1zm0 4h1-1zm0-13h1zm0 3v1h1v-1zm0 1a2 2 0 0 1 1 1v-1zm1-15zm0 17v-1 1zm0 0v1zm0 5v1zm0-2zm0-10v1h1v-1zm0 2 1 1h-1v-1zm1 5h1v1a1 1 0 0 0-1 0v-1zm0-8v1zm0 13zm0-19h1-1zm1 6zm1 4v1zm0 2v1zm1-3 1 1-1-1z"/>
</svg>
